<?xml version="1.0" encoding="UTF-8" standalone="no"?>
<!-- Created with Inkscape (http://www.inkscape.org/) -->

<svg
   width="250mm"
   height="25mm"
   viewBox="0 0 250 25"
   version="1.1"
   id="svg1"
   inkscape:version="1.4.3 (0d15f75, 2025-12-25)"
   sodipodi:docname="as33scale.svg"
   xmlns:inkscape="http://www.inkscape.org/namespaces/inkscape"
   xmlns:sodipodi="http://sodipodi.sourceforge.net/DTD/sodipodi-0.dtd"
   xmlns="http://www.w3.org/2000/svg"
   xmlns:svg="http://www.w3.org/2000/svg">
  <sodipodi:namedview
     id="namedview1"
     pagecolor="#ffffff"
     bordercolor="#666666"
     borderopacity="1.0"
     inkscape:showpageshadow="2"
     inkscape:pageopacity="0.0"
     inkscape:pagecheckerboard="0"
     inkscape:deskcolor="#d1d1d1"
     inkscape:document-units="mm"
     showguides="true"
     inkscape:zoom="1.0396254"
     inkscape:cx="397.25847"
     inkscape:cy="99.555088"
     inkscape:window-width="1862"
     inkscape:window-height="1211"
     inkscape:window-x="197"
     inkscape:window-y="55"
     inkscape:window-maximized="0"
     inkscape:current-layer="layer1">
    <sodipodi:guide
       position="-10.179949,7.6940873"
       orientation="0,-1"
       id="guide1"
       inkscape:locked="false" />
  </sodipodi:namedview>
  <defs
     id="defs1">
    <inkscape:path-effect
       effect="fillet_chamfer"
       id="path-effect1"
       is_visible="true"
       lpeversion="1"
       nodesatellites_param="F,0,0,1,0,1.3229167,0,1 @ F,0,0,1,0,1.3229167,0,1 @ F,0,0,1,0,1.3229167,0,1 @ F,0,0,1,0,1.3229167,0,1"
       radius="5"
       unit="px"
       method="auto"
       mode="F"
       chamfer_steps="1"
       flexible="false"
       use_knot_distance="true"
       apply_no_radius="true"
       apply_with_radius="true"
       only_selected="false"
       hide_knots="false" />
  </defs>
  <g
     inkscape:label="Ebene 1"
     inkscape:groupmode="layer"
     id="layer1">
    <path
       style="font-weight:bold;font-size:16px;line-height:0.95;font-family:Arial;-inkscape-font-specification:'Arial Bold';stroke-width:0.264583"
       d="m 210.03125,17.5 h -2.19531 V 9.2265625 Q 206.63281,10.351563 205,10.890625 V 8.8984375 q 0.85937,-0.28125 1.86719,-1.0625 Q 207.875,7.046875 208.25,6 h 1.78125 z"
       id="text1"
       aria-label="1" />
    <path
       style="font-weight:bold;font-size:16px;line-height:0.95;font-family:Arial;-inkscape-font-specification:'Arial Bold';stroke-width:0.264583"
       d="M 185.69531,15.460938 V 17.5 H 178 q 0.125,-1.15625 0.75,-2.1875 0.625,-1.039062 2.46875,-2.75 1.48437,-1.382812 1.82031,-1.875 0.45313,-0.679687 0.45313,-1.34375 0,-0.734375 -0.39844,-1.125 -0.39063,-0.3984375 -1.08594,-0.3984375 -0.6875,0 -1.09375,0.4140625 -0.40625,0.4140625 -0.46875,1.375 l -2.1875,-0.21875 q 0.19531,-1.8125 1.22656,-2.6015625 Q 180.51562,6 182.0625,6 q 1.69531,0 2.66406,0.9140625 0.96875,0.9140625 0.96875,2.2734375 0,0.7734375 -0.28125,1.476563 -0.27344,0.695312 -0.875,1.460937 -0.39844,0.507813 -1.4375,1.460938 -1.03906,0.953125 -1.32031,1.265625 -0.27344,0.3125 -0.44531,0.609375 z"
       id="text1-3"
       aria-label="2" />
    <path
       style="font-weight:bold;font-size:16px;line-height:0.95;font-family:Arial;-inkscape-font-specification:'Arial Bold';stroke-width:0.264583"
       d="m 151,14.460938 2.125,-0.257813 q 0.10156,0.8125 0.54687,1.242188 0.44532,0.429687 1.07813,0.429687 0.67969,0 1.14062,-0.515625 0.46875,-0.515625 0.46875,-1.390625 0,-0.828125 -0.44531,-1.3125 -0.44531,-0.484375 -1.08594,-0.484375 -0.42187,0 -1.00781,0.164063 l 0.24219,-1.789063 q 0.89062,0.02344 1.35937,-0.382812 0.46875,-0.414063 0.46875,-1.0937505 0,-0.578125 -0.34375,-0.921875 -0.34375,-0.34375 -0.91406,-0.34375 -0.5625,0 -0.96094,0.390625 -0.39843,0.390625 -0.48437,1.140625 l -2.02344,-0.34375 q 0.21094,-1.0390625 0.63281,-1.65625 0.42969,-0.625 1.1875,-0.9765625 Q 153.75,6 154.69531,6 q 1.61719,0 2.59375,1.03125 0.80469,0.84375 0.80469,1.90625 0,1.507813 -1.64844,2.40625 0.98438,0.210938 1.57031,0.945313 0.59375,0.734375 0.59375,1.773437 0,1.507813 -1.10156,2.570312 -1.10156,1.0625 -2.74219,1.0625 -1.55468,0 -2.57812,-0.890625 Q 151.16406,15.90625 151,14.460938 Z"
       id="text1-7"
       aria-label="3" />
    <path
       style="font-weight:bold;font-size:16px;line-height:0.95;font-family:Arial;-inkscape-font-specification:'Arial Bold';stroke-width:0.264583"
       d="m 128.68749,17.5 v -2.304687 h -4.6875 V 13.273438 L 128.96874,6 h 1.84375 v 7.265625 h 1.42188 v 1.929688 h -1.42188 V 17.5 Z m 0,-4.234375 V 9.3515625 l -2.63281,3.9140625 z"
       id="text1-1"
       aria-label="4" />
    <path
       style="font-weight:bold;font-size:16px;line-height:0.95;font-family:Arial;-inkscape-font-specification:'Arial Bold';stroke-width:0.264583"
       d="M 97,17.453125 V 6 h 2.25 l 4.6875,7.648438 V 6 h 2.14844 v 11.453125 h -2.32031 l -4.617193,-7.46875 v 7.46875 z"
       id="text1-2"
       aria-label="N" />
    <path
       style="font-weight:bold;font-size:16px;line-height:0.95;font-family:Arial;-inkscape-font-specification:'Arial Bold';stroke-width:0.264583"
       d="M 70,14.351563 72.1875,14.125 q 0.09375,0.742188 0.554687,1.179688 0.460938,0.429687 1.0625,0.429687 0.6875,0 1.164063,-0.554687 0.476562,-0.5625 0.476562,-1.6875 0,-1.054688 -0.476562,-1.578125 -0.46875,-0.53125 -1.226563,-0.53125 -0.945312,0 -1.695312,0.835937 L 70.265625,11.960938 71.390625,6 h 5.804687 V 8.0546875 H 73.054687 L 72.710937,10 q 0.734375,-0.3671875 1.5,-0.3671875 1.460938,0 2.476563,1.0625005 1.015625,1.0625 1.015625,2.757812 0,1.414063 -0.820313,2.523438 -1.117187,1.515624 -3.101562,1.515624 -1.585938,0 -2.585938,-0.851562 -1,-0.851562 -1.195312,-2.289062 z"
       id="text1-8"
       aria-label="5" />
    <path
       style="font-weight:bold;font-size:16px;line-height:0.95;font-family:Arial;-inkscape-font-specification:'Arial Bold';stroke-width:0.264583"
       d="m 50.4375,8.8515625 -2.125,0.234375 q -0.07813,-0.65625 -0.40625,-0.96875 -0.328125,-0.3125 -0.851563,-0.3125 -0.695312,0 -1.179687,0.625 -0.476563,0.625 -0.601563,2.6015625 0.820313,-0.96875 2.039063,-0.96875 1.375,0 2.351562,1.046875 0.984375,1.046875 0.984375,2.703125 0,1.757813 -1.03125,2.820312 -1.03125,1.0625 -2.648437,1.0625 -1.734375,0 -2.851563,-1.34375 Q 43,15 43,11.929688 43,8.78125 44.164062,7.390625 45.328125,6 47.1875,6 q 1.304687,0 2.15625,0.734375 0.859375,0.7265625 1.09375,2.1171875 z m -4.976563,4.7890625 q 0,1.070313 0.492188,1.65625 0.492187,0.578125 1.125,0.578125 0.609375,0 1.015625,-0.476562 0.40625,-0.476563 0.40625,-1.5625 0,-1.117188 -0.4375,-1.632813 -0.4375,-0.523437 -1.09375,-0.523437 -0.632813,0 -1.070313,0.5 -0.4375,0.492187 -0.4375,1.460937 z"
       id="text1-0"
       aria-label="6" />
    <path
       style="font-weight:bold;font-size:16px;line-height:0.95;font-family:Arial;-inkscape-font-specification:'Arial Bold';stroke-width:0.264583"
       d="M 16.000001,17.359375 V 6 h 2.3125 v 9.429688 h 5.75 v 1.929687 z"
       id="text1-4"
       aria-label="L" />
    <path
       style="opacity:0.999;fill:none;stroke:#111111;stroke-width:1;stroke-linejoin:round;stroke-dasharray:none;paint-order:markers fill stroke"
       id="rect1"
       width="245.59126"
       height="20.359896"
       x="2.2904885"
       y="2.2904885"
       inkscape:path-effect="#path-effect1"
       sodipodi:type="rect"
       d="M 3.6134052,2.2904885 H 246.55883 a 1.3229167,1.3229167 45 0 1 1.32292,1.3229167 V 21.327467 a 1.3229167,1.3229167 135 0 1 -1.32292,1.322917 H 3.6134052 A 1.3229167,1.3229167 45 0 1 2.2904885,21.327467 V 3.6134052 A 1.3229167,1.3229167 135 0 1 3.6134052,2.2904885 Z"
       transform="matrix(1.0017643,0,0,0.98201087,-0.27906164,-0.47590388)" />
    <path
       style="font-weight:bold;font-size:10px;line-height:0.95;font-family:Arial;-inkscape-font-specification:'Arial Bold';stroke-width:0.264583"
       d="m 228.5965,11.452443 h -1.57227 l -0.625,-1.6259764 h -2.86133 l -0.59082,1.6259764 h -1.5332 l 2.78809,-7.158203 h 1.52832 z m -2.66114,-2.8320311 -0.98632,-2.65625 -0.9668,2.65625 z m 3.06153,0.5029297 1.40625,-0.1367188 q 0.12695,0.7080078 0.51269,1.0400392 0.39063,0.332031 1.04981,0.332031 0.69824,0 1.0498,-0.292969 0.35645,-0.2978512 0.35645,-0.693359 0,-0.2539063 -0.15137,-0.4296875 -0.14648,-0.1806641 -0.51758,-0.3125 -0.2539,-0.087891 -1.15722,-0.3125 -1.16211,-0.2880859 -1.63086,-0.7080078 -0.65918,-0.5908203 -0.65918,-1.4404297 0,-0.546875 0.30761,-1.0205078 0.3125,-0.4785156 0.89356,-0.7275391 0.58594,-0.2490234 1.41113,-0.2490234 1.34766,0 2.02637,0.5908203 0.68359,0.5908203 0.71777,1.5771484 l -1.44531,0.063477 q -0.0928,-0.5517578 -0.40039,-0.7910156 -0.30274,-0.2441407 -0.91309,-0.2441407 -0.62988,0 -0.98633,0.2587891 -0.22949,0.1660156 -0.22949,0.4443359 0,0.2539063 0.21485,0.4345704 0.27343,0.2294921 1.32812,0.4785156 1.05469,0.2490234 1.55762,0.5175781 0.50781,0.2636719 0.79101,0.7275391 0.28809,0.4589843 0.28809,1.1376953 0,0.6152344 -0.3418,1.1523438 -0.34179,0.537109 -0.96679,0.800781 -0.625,0.258789 -1.55762,0.258789 -1.35742,0 -2.08496,-0.625 -0.72754,-0.629883 -0.86914,-1.8310544 z m 6.68457,0.4296875 1.32812,-0.1611329 q 0.0635,0.5078125 0.3418,0.7763668 0.27832,0.268555 0.67383,0.268555 0.4248,0 0.71289,-0.322266 0.29297,-0.3222651 0.29297,-0.8691401 0,-0.5175782 -0.27832,-0.8203125 -0.27832,-0.3027344 -0.67871,-0.3027344 -0.26368,0 -0.62989,0.1025391 L 237.59552,7.10674 q 0.55664,0.014648 0.84961,-0.2392578 0.29297,-0.2587891 0.29297,-0.6835938 0,-0.3613281 -0.21485,-0.5761718 -0.21484,-0.2148438 -0.57128,-0.2148438 -0.35157,0 -0.60059,0.2441406 -0.24902,0.2441407 -0.30273,0.7128907 L 235.784,6.1350603 q 0.13183,-0.6494141 0.3955,-1.0351562 0.26856,-0.390625 0.74219,-0.6103516 0.47852,-0.2246094 1.06934,-0.2246094 1.01074,0 1.62109,0.6445313 0.50293,0.5273437 0.50293,1.1914062 0,0.9423828 -1.03027,1.5039063 0.61523,0.1318359 0.98144,0.5908203 0.3711,0.4589844 0.3711,1.1083984 0,0.9423824 -0.68848,1.6064454 -0.68848,0.664062 -1.71387,0.664062 -0.97168,0 -1.61132,-0.55664 -0.63965,-0.561524 -0.74219,-1.4648439 z m 5.56152,0 1.32813,-0.1611329 q 0.0635,0.5078125 0.34179,0.7763668 0.27832,0.268555 0.67383,0.268555 0.42481,0 0.71289,-0.322266 0.29297,-0.3222651 0.29297,-0.8691401 0,-0.5175782 -0.27832,-0.8203125 -0.27832,-0.3027344 -0.67871,-0.3027344 -0.26367,0 -0.62988,0.1025391 L 243.15704,7.10674 q 0.55664,0.014648 0.84961,-0.2392578 0.29297,-0.2587891 0.29297,-0.6835938 0,-0.3613281 -0.21484,-0.5761718 -0.21485,-0.2148438 -0.57129,-0.2148438 -0.35156,0 -0.60059,0.2441406 -0.24902,0.2441407 -0.30273,0.7128907 l -1.26465,-0.2148438 q 0.13184,-0.6494141 0.39551,-1.0351562 0.26855,-0.390625 0.74219,-0.6103516 0.47851,-0.2246094 1.06933,-0.2246094 1.01074,0 1.6211,0.6445313 0.50292,0.5273437 0.50292,1.1914062 0,0.9423828 -1.03027,1.5039063 0.61524,0.1318359 0.98145,0.5908203 0.37109,0.4589844 0.37109,1.1083984 0,0.9423824 -0.68848,1.6064454 -0.68847,0.664062 -1.71386,0.664062 -0.97168,0 -1.61133,-0.55664 -0.63965,-0.561524 -0.74219,-1.4648439 z"
       id="text2"
       aria-label="AS33" />
  </g>
</svg>
