<?xml version="1.0" encoding="UTF-8" standalone="no"?>
<!-- Created with Inkscape (http://www.inkscape.org/) -->

<svg
   width="210mm"
   height="30mm"
   viewBox="0 0 210 30"
   version="1.1"
   id="svg1"
   xml:space="preserve"
   inkscape:version="1.4.3 (0d15f75, 2025-12-25)"
   sodipodi:docname="as33Trim.svg"
   xmlns:inkscape="http://www.inkscape.org/namespaces/inkscape"
   xmlns:sodipodi="http://sodipodi.sourceforge.net/DTD/sodipodi-0.dtd"
   xmlns="http://www.w3.org/2000/svg"
   xmlns:svg="http://www.w3.org/2000/svg"><sodipodi:namedview
     id="namedview1"
     pagecolor="#ffffff"
     bordercolor="#666666"
     borderopacity="1.0"
     inkscape:showpageshadow="2"
     inkscape:pageopacity="0.0"
     inkscape:pagecheckerboard="0"
     inkscape:deskcolor="#d1d1d1"
     inkscape:document-units="mm"
     inkscape:zoom="0.73512619"
     inkscape:cx="340.75783"
     inkscape:cy="86.379728"
     inkscape:window-width="1492"
     inkscape:window-height="1211"
     inkscape:window-x="1389"
     inkscape:window-y="71"
     inkscape:window-maximized="0"
     inkscape:current-layer="layer1" /><defs
     id="defs1" /><g
     inkscape:label="Ebene 1"
     inkscape:groupmode="layer"
     id="layer1"><path
       d="m 73.045429,25.706909 c 1.004685,-0.82736 1.024684,-0.720061 1.045945,-10.767711 C 74.112514,4.9461285 74.053894,4.4663785 72.707256,3.6117085 71.967411,3.1421485 69.588903,3.3078063 29.574881,3.5411663 9.5112363,3.6581763 9.5404859,3.0294035 8.8105891,4.7764735 8.5478246,5.4054335 8.5144764,8.1601532 8.4961078,13.363293 8.4583658,24.054165 8.3144697,24.894369 9.04649,25.707459 c 0.3328253,0.36969 1.043259,0.686689 1.481536,0.801659 0.438279,0.11496 7.760024,0.13389 16.270546,0.0421 8.510522,-0.0918 15.495595,-0.14583 15.522387,-0.11992 0.02679,0.0259 6.649079,-0.007 14.716195,-0.0731 13.171274,0.02745 14.551554,0.193446 15.288444,-0.201334 z M 23.706167,25.558598 10.70242,25.615098 9.9510514,25.213884 9.5973369,24.574088 9.5861739,18.486808 C 9.5652879,7.0975163 9.6044477,5.8602273 9.7965569,4.9498695 L 10.406099,4.5721476 40.715141,4.2600385 c 16.254006,-0.14314 29.890362,-0.00424 30.357998,0.061183 0.490096,0.0686 1.130812,0.2071775 1.451381,0.6027475 l 0.421175,0.7312694 0.104148,9.1080306 -0.03082,9.153029 -0.485888,0.931177 -0.845802,0.704777 -17.477458,-0.06935 c -9.624974,0.0972 -23.351639,0.04462 -30.503699,0.07572 z m 3.901034,-2.23971 c 0.06043,-0.18279 0.09567,-0.68344 0.0783,-1.11255 -0.02425,-0.5993 -0.180879,-0.81345 -0.675561,-0.92363 -0.909647,-0.20259 -0.993395,-0.73402 -0.167345,-1.06189 0.858667,-0.34082 0.727357,-0.90686 -0.233482,-1.00648 -0.861165,-0.0893 -0.965746,-0.81751 -0.124487,-0.86685 0.327178,-0.0191 0.951531,-0.0736 1.387449,-0.1211 0.435921,-0.0474 2.458138,-0.18915 4.493818,-0.31497 13.612406,-0.84133 14.592143,-0.94665 19.286508,-2.07339 4.149051,-0.99585 7.2617,-2.56215 8.137231,-4.0947 l 0.453974,-0.79465 -0.503731,-0.65328 C 59.01311,9.3528585 57.334897,8.5232285 55.14738,8.0250885 c -1.527445,-0.34784 -2.603556,-0.39519 -5.404242,-0.23776 -4.188222,0.2354 -5.883897,0.7122 -13.159893,3.7003395 -2.74389,1.12688 -5.167117,2.05145 -5.384951,2.05462 -0.217834,0.003 -2.034288,-0.75541 -4.036566,-1.68573 l -3.640504,-1.69146 -0.94241,0.08746 c -0.592866,0.33773 -0.374614,0.845011 -0.419846,2.578981 -0.06227,2.38699 0.40216,4.83019 0.999818,5.25974 0.248105,0.17831 0.785497,0.31936 1.194203,0.31342 1.063748,-0.0154 0.990261,0.72257 -0.08409,0.84444 -1.069802,0.12136 -1.255101,0.67985 -0.336417,1.01394 0.868203,0.31574 0.753386,0.88536 -0.204156,1.01283 -0.646433,0.0861 -0.704473,0.19281 -0.688875,1.26691 l 0.01703,1.17293 2.220416,-0.0323 c 1.538803,-0.0224 2.254146,-0.13427 2.330292,-0.36461 z m -4.130151,-5.84925 c -0.268068,-0.31362 -0.426252,-1.35695 -0.523165,-3.45064 l -0.138914,-3.00108 0.555162,-0.008 c 0.30534,-0.004 2.16836,0.7669 4.140044,1.71405 l 3.584879,1.72211 4.420586,-1.82714 c 6.034238,-2.49412 6.993234,-2.8501795 9.423921,-3.4988695 3.112872,-0.83077 3.380014,-0.79519 4.403018,0.58653 l 0.872241,1.1780795 3.135489,-0.0455 3.13549,-0.0455 0.291744,-0.66576 c 0.160459,-0.3661695 0.462594,-0.6682495 0.671411,-0.6712895 0.636507,-0.009 1.931841,1.0353295 1.939519,1.5640595 0.02142,1.47507 -5.526615,3.97392 -10.918793,4.91784 -2.076564,0.36351 -11.693516,1.14995 -17.566937,1.43657 -2.545079,0.12417 -5.170573,0.29746 -5.83443,0.38502 -0.939279,0.1239 -1.292248,0.0595 -1.591265,-0.29034 z m 19.813791,-3.44336 c 3.898912,-0.23831 5.199955,-0.49949 6.059534,-1.21645 1.34879,-1.12501 -0.383535,-2.05613 -3.330529,-1.79016 -1.646561,0.14861 -2.429708,0.4072 -4.859571,1.60458 -2.810798,1.3851 -3.65004,2.07075 -2.164052,1.768 0.399044,-0.0813 2.331622,-0.24599 4.294618,-0.36597 z m -1.09727,-1.2195 c 2.809929,-1.35587 6.610934,-1.75318 6.626336,-0.69262 0.0083,0.57394 -1.130496,0.93151 -3.538898,1.11115 -1.172489,0.0874 -2.726399,0.21222 -3.453135,0.27726 l -1.321339,0.1183 z m 7.809802,-3.3568095 c -0.388289,-0.49402 -0.707224,-0.98388 -0.708744,-1.08858 -0.0043,-0.29708 5.763499,0.0226 6.428513,0.35636 0.819036,0.41099 0.803469,0.37882 0.483188,0.99874 -0.261356,0.5058695 -0.52239,0.5594695 -2.892132,0.5938895 l -2.604846,0.0378 z"
       style="fill:#000000"
       id="path1-9"
       sodipodi:nodetypes="cssscssccscccccccsccccscccccccccccsccccsscsscsccccsccsccscccccsccccccscccscssccccssssssccccccsccsccs" /><path
       d="m 152.11397,26.975258 c 4.8753,0.0573 11.90225,0.0789 15.61543,0.0481 3.71319,-0.0309 8.65727,-0.0646 10.98685,-0.0748 8.73775,-0.0386 11.10251,0.0419 11.80033,-0.294002 1.01278,-0.48752 1.57612,-1.888308 1.50763,-3.515258 -0.0317,-0.75387 -0.10194,-4.381138 -0.15224,-7.735097 -0.14049,-9.3668283 0.21635,-10.5299666 -0.7607,-10.8676258 l -0.79655,-0.275282 -3.84347,-0.1196947 c -4.28381,-0.12265 -16.14151,-0.12946 -28.27692,-0.0163 -3.01407,0.0281 -6.45824,0.0105 -23.42177,-0.12014 -7.70981,-0.0594 -8.39053,-0.062237 -9.10196,1.1798632 -0.35271,0.61601 -0.22653,6.6842863 -0.1375,14.9978263 l 0.0488,4.55273 0.37842,1.19859 c 0.12966,0.410657 1.32557,0.855716 1.63091,0.931526 0.5509,0.13678 7.48454,-0.09066 24.52274,0.109584 z m -24.91811,-1.467372 c -0.39411,-0.331307 -0.67065,-1.663608 -0.65502,-3.011368 0.01,-0.848 -0.008,-1.8999 -0.0398,-2.33755 -0.0317,-0.43765 -0.12425,-4.015644 -0.0507,-7.717794 l 0.11522,-6.4728413 0.472,-0.7498025 1.02312,-0.4123817 11.61206,0.14004 c 6.38664,0.077 12.20826,0.11797 12.93693,0.091 0.72868,-0.0269 4.83793,-0.0242 9.13169,0.006 8.70115,0.0614 21.62387,0.003 24.52224,-0.1115 2.12861,-0.0839 3.96297,0.2626253 4.37207,1.0826153 0.27275,0.5467 0.24297,7.7466872 0.23734,14.9433202 l -0.0188,3.643795 -0.47289,0.782803 c -0.44524,0.737036 -2.05345,0.506236 -10.84137,0.528636 -2.47505,0.006 -5.63231,0.0344 -7.01612,0.0624 -4.29197,0.0868 -13.84795,0.0367 -35.38491,-0.18588 l -9.47153,0.114879 z m 48.857,-2.606798 c 0.0309,-1.07898 -0.025,-1.19184 -0.59882,-1.20826 -0.91963,-0.0263 -1.08481,-0.78029 -0.23564,-1.07562 0.90026,-0.31309 0.70617,-0.87447 -0.34892,-1.00925 -1.26345,-0.1614 -0.99796,-0.71672 0.72556,-1.51759 1.32508,-0.61574 1.55702,-0.83153 1.64554,-1.53101 0.21689,-1.71383 -3.36481,-4.06348 -7.79166,-5.11144 -2.79649,-0.66203 -7.26987,-0.9101 -9.95137,-0.55187 -0.97269,0.12994 -3.62195,0.48796 -5.88725,0.79559 -2.2653,0.30764 -4.44167,0.55992 -4.83639,0.56065 -0.49623,9e-4 -1.45936,-0.58691 -3.12175,-1.90522 -3.93383,-3.1196195 -4.04561,-3.1905595 -4.77462,-3.0296095 -0.87198,0.1925 -1.18653,1.00703 -1.59336,4.1261695 -0.23125,1.77291 -0.25183,2.71894 -0.0672,3.08901 0.31478,0.63093 1.24264,0.87526 7.50575,1.9765 2.46248,0.43297 5.60301,0.9888 6.97897,1.23519 5.71654,1.0236 8.00247,1.28555 12.39984,1.4209 2.54542,0.0779 5.19583,0.0716 5.88982,-0.0149 1.36601,-0.17033 1.76147,0.20802 0.45086,0.43135 -0.97143,0.16553 -1.04308,0.59649 -0.15988,0.96155 0.81397,0.33643 0.83515,1.01708 0.0344,1.1075 -0.49669,0.0561 -0.61664,0.25671 -0.71099,1.18917 l -0.11355,1.12169 2.26324,0.0648 2.26325,0.0648 z m -13.50548,-4.40612 c -1.87464,-0.21829 -6.04104,-0.86739 -9.09131,-1.41636 -10.5424,-1.89739 -12.56436,-2.28395 -13.09672,-2.5038 -0.51845,-0.21412 -0.58328,-0.4287 -0.54401,-1.80039 0.0529,-1.84746 0.53377,-4.2009395 0.95662,-4.6817495 0.39906,-0.45375 0.71429,-0.26287 4.34841,2.6331095 l 2.93746,2.34083 1.90325,-0.24261 c 1.04679,-0.13343 3.39813,-0.45161 5.22519,-0.70707 5.37253,-0.75118 6.916,-0.88034 9.20381,-0.77016 l 2.16444,0.10418 0.53022,1.42184 0.5302,1.42184 1.48693,0.34208 c 0.81781,0.18815 2.17503,0.51682 3.01604,0.73038 l 1.52909,0.38829 0.62825,-0.63979 c 0.53165,-0.54143 0.71341,-0.59104 1.18212,-0.32267 0.30462,0.17443 0.73958,0.61909 0.96657,0.98815 l 0.41271,0.67102 -0.49014,0.51139 c -1.39234,1.4527 -8.09104,2.19613 -13.79913,1.53144 z m 3.61671,-2.39284 c 1.06043,-0.33596 1.05809,-1.0888 -0.006,-1.92792 -1.09068,-0.86007 -5.76646,-0.95459 -8.83991,-0.17865 -2.269,0.57282 -2.64639,1.00375 -0.94363,1.07747 0.53668,0.0234 2.2192,0.29502 3.73895,0.60396 3.32304,0.67556 4.9086,0.78697 6.0506,0.42518 z m -2.07923,-0.45987 c -0.21729,-0.0375 -1.67582,-0.25161 -3.24117,-0.47567 -1.56535,-0.22406 -2.74869,-0.49578 -2.62963,-0.60383 0.33312,-0.30234 3.21421,-0.68462 4.71093,-0.62507 1.6511,0.0657 3.17647,0.60773 3.1617,1.12349 -0.0108,0.37644 -1.19581,0.72043 -2.00183,0.58108 z m 6.49232,-1.28604 -2.39452,-0.59922 -0.41803,-0.94537 c -0.22993,-0.51995 -0.35284,-1.00694 -0.27314,-1.08221 0.25394,-0.23981 4.17103,0.85476 5.63206,1.57379 l 1.40817,0.693 -0.49111,0.5124 c -0.57742,0.60245 -0.41932,0.6094 -3.46343,-0.15238 z"
       style="fill:#000000"
       id="path1-1"
       sodipodi:nodetypes="sccssssccsscccsssssccccccccccsscsccccscsssssssssssssscccsssccccccssssscssccccsscssscscccsscccccsssscccssscssc" /></g></svg>
