<?xml version="1.0" encoding="UTF-8" standalone="no"?>
<!-- Created with Inkscape (http://www.inkscape.org/) -->

<svg
   width="55.700001mm"
   height="186mm"
   viewBox="0 0 55.700001 186"
   version="1.1"
   id="svg1"
   inkscape:version="1.4.3 (0d15f75, 2025-12-25)"
   sodipodi:docname="as33panel.svg"
   xml:space="preserve"
   xmlns:inkscape="http://www.inkscape.org/namespaces/inkscape"
   xmlns:sodipodi="http://sodipodi.sourceforge.net/DTD/sodipodi-0.dtd"
   xmlns="http://www.w3.org/2000/svg"
   xmlns:svg="http://www.w3.org/2000/svg"><sodipodi:namedview
     id="namedview1"
     pagecolor="#ffffff"
     bordercolor="#666666"
     borderopacity="1.0"
     inkscape:showpageshadow="2"
     inkscape:pageopacity="0.0"
     inkscape:pagecheckerboard="0"
     inkscape:deskcolor="#d1d1d1"
     inkscape:document-units="mm"
     inkscape:zoom="2.0792508"
     inkscape:cx="89.93624"
     inkscape:cy="502.82534"
     inkscape:window-width="1382"
     inkscape:window-height="1211"
     inkscape:window-x="1603"
     inkscape:window-y="0"
     inkscape:window-maximized="0"
     inkscape:current-layer="layer1"
     showguides="true"><sodipodi:guide
       position="29.9036,38.136247"
       orientation="1,0"
       id="guide2"
       inkscape:locked="false" /><sodipodi:guide
       position="34.371934,51.931463"
       orientation="0,-1"
       id="guide7"
       inkscape:locked="false" /><sodipodi:guide
       position="34.641871,29.166806"
       orientation="0,-1"
       id="guide8"
       inkscape:locked="false" /><sodipodi:guide
       position="30.476222,36.036632"
       orientation="0,-1"
       id="guide9"
       inkscape:locked="false" /><sodipodi:guide
       position="29.513074,55.980513"
       orientation="0,-1"
       id="guide10"
       inkscape:locked="false" /></sodipodi:namedview><defs
     id="defs1"><inkscape:path-effect
       effect="fillet_chamfer"
       id="path-effect7"
       is_visible="true"
       lpeversion="1"
       nodesatellites_param="F,0,0,1,0,0,0,1 @ F,0,1,1,0,1.8520834,0,1 @ F,0,0,1,0,0,0,1 @ F,0,0,1,0,0,0,1 @ F,0,0,1,0,1.3229167,0,1 @ F,0,0,1,0,0,0,1"
       radius="7"
       unit="px"
       method="auto"
       mode="F"
       chamfer_steps="1"
       flexible="false"
       use_knot_distance="true"
       apply_no_radius="true"
       apply_with_radius="true"
       only_selected="true"
       hide_knots="false" /><inkscape:path-effect
       effect="fillet_chamfer"
       id="path-effect14"
       is_visible="true"
       lpeversion="1"
       nodesatellites_param="F,0,0,1,0,0.79375002,0,1 @ F,0,0,1,0,0.79375002,0,1 @ F,0,0,1,0,0.79375002,0,1 @ F,0,0,1,0,0.79375002,0,1"
       radius="3"
       unit="px"
       method="auto"
       mode="F"
       chamfer_steps="1"
       flexible="false"
       use_knot_distance="true"
       apply_no_radius="true"
       apply_with_radius="true"
       only_selected="false"
       hide_knots="false" /><inkscape:path-effect
       effect="fillet_chamfer"
       id="path-effect13"
       is_visible="true"
       lpeversion="1"
       nodesatellites_param="F,0,0,1,0,1.5875,0,1 @ F,0,0,1,0,1.5875,0,1 @ F,0,0,1,0,1.5875,0,1 @ F,0,0,1,0,1.5875,0,1"
       radius="6"
       unit="px"
       method="auto"
       mode="F"
       chamfer_steps="1"
       flexible="false"
       use_knot_distance="true"
       apply_no_radius="true"
       apply_with_radius="true"
       only_selected="false"
       hide_knots="false" /><inkscape:path-effect
       effect="fillet_chamfer"
       id="path-effect2-16"
       is_visible="true"
       lpeversion="1"
       nodesatellites_param="F,0,0,1,0,4.3589578,0,1 @ F,0,0,1,0,3.7474031,0,1 @ F,0,0,1,0,4.0987215,0,1 @ F,0,0,1,0,4.0076394,0,1"
       radius="0"
       unit="px"
       method="auto"
       mode="F"
       chamfer_steps="1"
       flexible="false"
       use_knot_distance="true"
       apply_no_radius="true"
       apply_with_radius="true"
       only_selected="false"
       hide_knots="false" /><inkscape:path-effect
       effect="fillet_chamfer"
       id="path-effect14-6"
       is_visible="true"
       lpeversion="1"
       nodesatellites_param="F,0,0,1,0,0.79375002,0,1 @ F,0,0,1,0,0.79375002,0,1 @ F,0,0,1,0,0.79375002,0,1 @ F,0,0,1,0,0.79375002,0,1"
       radius="3"
       unit="px"
       method="auto"
       mode="F"
       chamfer_steps="1"
       flexible="false"
       use_knot_distance="true"
       apply_no_radius="true"
       apply_with_radius="true"
       only_selected="false"
       hide_knots="false" /></defs><g
     inkscape:label="Ebene 1"
     inkscape:groupmode="layer"
     id="layer1"><path
       d="m 29.534333,164.58553 c -0.003,-1.99414 0.03398,-3.57582 -0.302697,-4.93581 l -11.016131,-0.59115 c -0.304597,-0.15561 -0.295093,-0.67951 0.02876,-0.88955 l 10.838409,-0.38253 c 0.0221,-0.88481 0.0026,-3.57913 0.846317,-3.75044 0.731319,0.15513 0.88433,2.91031 0.881004,3.75401 l 10.63075,0.3583 c 0.255416,0.13779 0.499665,0.58994 0.01829,0.93351 l -10.736951,0.56785 c -0.354256,1.25023 -0.377065,4.94698 -0.377065,4.94698 0.506554,0.0926 1.494241,0.13139 1.749655,0.30459 0.283215,0.19223 0.314816,0.93852 -0.08673,0.93115 -0.693067,-0.0126 -3.289276,-4.8e-4 -4.030336,-0.0147 -0.481131,-0.009 -0.364948,-0.78359 -0.09741,-0.91546 0.26563,-0.13115 1.130954,-0.22334 1.65414,-0.3167 z"
       style="fill:#000000;fill-opacity:1;stroke:#111111;stroke-width:0.129004;stroke-linejoin:round;stroke-miterlimit:4;stroke-dasharray:none;stroke-opacity:1"
       id="path1-6" /><path
       style="fill:none;stroke:#000000;stroke-width:0.4;stroke-linecap:butt;stroke-linejoin:miter;stroke-opacity:1;stroke-dasharray:none"
       d="m 23.664446,156.78142 -0.03181,-6.82296 1.439662,0.0582"
       id="path3"
       sodipodi:nodetypes="ccc" /><path
       style="fill:none;stroke:#000000;stroke-width:0.4;stroke-linecap:butt;stroke-linejoin:miter;stroke-opacity:1;stroke-dasharray:none"
       d="m 35.811594,156.76052 -0.08998,-6.67575 h -1.259705"
       id="path4"
       sodipodi:nodetypes="ccc" /><path
       style="fill:none;stroke:#000000;stroke-width:0.4;stroke-linecap:butt;stroke-linejoin:miter;stroke-dasharray:none;stroke-opacity:1"
       d="M 18.175734,156.82322 18.130744,131 l 6.973363,-4"
       id="path5"
       sodipodi:nodetypes="ccc" /><path
       style="fill:none;stroke:#000000;stroke-width:0.4;stroke-linecap:butt;stroke-linejoin:miter;stroke-dasharray:none;stroke-opacity:1"
       d="M 41.782014,156.81869 41.750204,131 l -7.19831,-4"
       id="path6"
       sodipodi:nodetypes="ccc" /><path
       style="opacity:0.999;fill:none;stroke:#111111;stroke-width:0.4;stroke-linejoin:round;stroke-dasharray:none;stroke-opacity:1;paint-order:markers fill stroke"
       id="rect10"
       width="21.569338"
       height="11.007642"
       x="19.150742"
       y="134.43864"
       inkscape:path-effect="#path-effect14"
       sodipodi:type="rect"
       d="m 19.944492,134.43864 h 19.981837 a 0.79375002,0.79375002 45 0 1 0.79375,0.79375 v 9.42015 a 0.79375002,0.79375002 135 0 1 -0.79375,0.79375 H 19.944492 a 0.79375002,0.79375002 45 0 1 -0.79375,-0.79375 v -9.42015 a 0.79375002,0.79375002 135 0 1 0.79375,-0.79375 z"
       ry="0"
       transform="matrix(0.99787962,0,0,1.2443871,0.06347431,-35.56807)" /><path
       style="font-weight:bold;font-size:4px;line-height:0.95;font-family:Arial;-inkscape-font-specification:'Arial Bold';stroke-width:0.294315"
       d="m 20.012581,133.94371 q 0,-0.29478 0.154682,-0.57061 0.154682,-0.27583 0.437143,-0.42111 0.284705,-0.14529 0.634419,-0.14529 0.540265,0 0.885496,0.33057 0.345232,0.32848 0.345232,0.83171 0,0.50744 -0.349715,0.84223 -0.347474,0.33268 -0.87653,0.33268 -0.327296,0 -0.625451,-0.13897 -0.295912,-0.13896 -0.450594,-0.40637 -0.154682,-0.26952 -0.154682,-0.65484 z m 0.645628,0.0316 q 0,0.33268 0.168132,0.50954 0.168132,0.17688 0.414726,0.17688 0.246594,0 0.412484,-0.17688 0.168132,-0.17686 0.168132,-0.51376 0,-0.32847 -0.168132,-0.50533 -0.16589,-0.17687 -0.412484,-0.17687 -0.246594,0 -0.414726,0.17687 -0.168132,0.17686 -0.168132,0.50955 z m 2.286597,-1.11806 h 0.587342 v 0.32846 q 0.114331,-0.16845 0.309363,-0.27372 0.195033,-0.10533 0.43266,-0.10533 0.414726,0 0.703912,0.30532 0.289188,0.30531 0.289188,0.85065 0,0.56008 -0.291429,0.87171 -0.291429,0.30952 -0.706155,0.30952 -0.197275,0 -0.358682,-0.0737 -0.159165,-0.0737 -0.336264,-0.25266 v 1.12648 h -0.629935 z m 0.62321,1.08016 q 0,0.37689 0.159164,0.55798 0.159165,0.17896 0.387826,0.17896 0.219692,0 0.365407,-0.16423 0.145715,-0.16634 0.145715,-0.54324 0,-0.35163 -0.150199,-0.52218 -0.150198,-0.17055 -0.372133,-0.17055 -0.2309,0 -0.38334,0.16845 -0.15244,0.16633 -0.15244,0.49481 z m 3.577851,0.44427 0.627693,0.099 q -0.121054,0.32426 -0.38334,0.49481 -0.260045,0.16844 -0.652353,0.16844 -0.620968,0 -0.919122,-0.3811 -0.235385,-0.30532 -0.235385,-0.77065 0,-0.55587 0.309363,-0.8696 0.309362,-0.31584 0.782375,-0.31584 0.531296,0 0.838419,0.33057 0.307121,0.32848 0.29367,1.00858 h -1.5782 q 0.0068,0.2632 0.152439,0.41059 0.145716,0.14528 0.363166,0.14528 0.147957,0 0.248836,-0.0758 0.100878,-0.0758 0.152439,-0.24425 z m 0.03587,-0.59798 q -0.0068,-0.25688 -0.14123,-0.38954 -0.134505,-0.13475 -0.327297,-0.13475 -0.206243,0 -0.340748,0.14107 -0.134507,0.14107 -0.132264,0.38322 z m 3.304357,1.30967 h -0.629935 v -1.14123 q 0,-0.36216 -0.04036,-0.46743 -0.04035,-0.10738 -0.132263,-0.16635 -0.08968,-0.059 -0.217452,-0.059 -0.163649,0 -0.293671,0.0842 -0.130022,0.0842 -0.179341,0.22319 -0.04708,0.13897 -0.04708,0.51376 v 1.01279 h -0.629935 v -2.23613 h 0.585101 v 0.32847 q 0.311604,-0.37901 0.784617,-0.37901 0.208483,0 0.381099,0.0716 0.172616,0.0695 0.260044,0.17897 0.08968,0.10949 0.123296,0.24846 0.03587,0.13897 0.03587,0.39795 z"
       id="text10"
       aria-label="open" /><path
       style="font-weight:bold;font-size:4px;line-height:0.95;font-family:Arial;-inkscape-font-specification:'Arial Bold';stroke-width:0.306733"
       d="m 20.055128,143.52971 0.68665,-0.0906 q 0.04383,0.17265 0.177749,0.2632 0.133922,0.0884 0.374979,0.0884 0.265407,0 0.399329,-0.0842 0.0901,-0.059 0.0901,-0.15792 0,-0.0674 -0.0487,-0.11159 -0.05114,-0.0421 -0.228884,-0.0779 -0.827875,-0.15791 -1.049455,-0.28846 -0.3068,-0.18108 -0.3068,-0.50324 0,-0.29057 0.265408,-0.48849 0.265407,-0.19792 0.823006,-0.19792 0.530814,0 0.788916,0.1495 0.258102,0.14949 0.355499,0.44216 l -0.645255,0.10317 q -0.04139,-0.13055 -0.15827,-0.20003 -0.114451,-0.0694 -0.328716,-0.0694 -0.270277,0 -0.387154,0.0652 -0.07792,0.0464 -0.07792,0.12002 0,0.0632 0.06818,0.10738 0.09253,0.059 0.637951,0.16634 0.547859,0.10738 0.764568,0.2632 0.214273,0.15791 0.214273,0.44006 0,0.30742 -0.29706,0.52851 -0.297063,0.22107 -0.879011,0.22107 -0.52838,0 -0.837615,-0.18528 -0.306801,-0.1853 -0.401763,-0.50324 z m 3.696223,-2.44879 v 1.13491 q 0.33115,-0.33478 0.79135,-0.33478 0.236188,0 0.426114,0.0758 0.189924,0.0758 0.284887,0.19372 0.0974,0.11791 0.131485,0.26108 0.03653,0.14319 0.03653,0.44428 v 1.31178 h -0.684215 v -1.18123 q 0,-0.35164 -0.03896,-0.44639 -0.03896,-0.0948 -0.138791,-0.14949 -0.09741,-0.0568 -0.245929,-0.0568 -0.170444,0 -0.304365,0.0716 -0.133922,0.0716 -0.19723,0.21688 -0.06087,0.14318 -0.06087,0.42533 v 1.12016 H 23.067139 V 141.081 Z m 4.066331,3.08678 v -0.33479 q -0.141227,0.17898 -0.372545,0.28215 -0.228883,0.10317 -0.484551,0.10317 -0.260537,0 -0.467506,-0.099 -0.206969,-0.099 -0.299496,-0.27793 -0.09253,-0.17898 -0.09253,-0.49482 v -1.41495 h 0.684214 v 1.02753 q 0,0.47165 0.03653,0.57904 0.03896,0.10532 0.13879,0.16844 0.09983,0.061 0.253233,0.061 0.175315,0 0.314106,-0.0822 0.138792,-0.0842 0.189924,-0.20634 0.05114,-0.12423 0.05114,-0.6043 v -0.9433 h 0.684216 v 2.23613 z m 2.52989,-2.23612 v 0.47165 h -0.467506 v 0.90119 q 0,0.27371 0.01221,0.32004 0.01461,0.0442 0.06087,0.0737 0.0487,0.0294 0.116875,0.0294 0.09497,0 0.275148,-0.0568 l 0.05843,0.45902 q -0.238622,0.0884 -0.540555,0.0884 -0.185053,0 -0.333585,-0.0526 -0.148529,-0.0548 -0.219143,-0.13897 -0.06818,-0.0863 -0.09496,-0.23161 -0.02191,-0.10317 -0.02191,-0.41691 v -0.97488 H 28.87934 v -0.47165 h 0.314107 v -0.44428 l 0.686649,-0.34531 v 0.78959 z"
       id="text10-1"
       aria-label="shut" /><path
       style="font-weight:bold;font-size:4px;line-height:0.95;font-family:Arial;-inkscape-font-specification:'Arial Bold';stroke-width:0.313727"
       d="m 21.330347,138.69547 q 0,-0.29477 0.175759,-0.57061 0.17576,-0.27583 0.496713,-0.42112 0.323501,-0.14528 0.720871,-0.14528 0.613886,0 1.006161,0.33058 0.392277,0.32846 0.392277,0.8317 0,0.50744 -0.397371,0.84223 -0.394822,0.33269 -0.995973,0.33269 -0.371898,0 -0.710682,-0.13897 -0.336236,-0.13898 -0.511996,-0.40638 -0.175759,-0.26951 -0.175759,-0.65484 z m 0.733606,0.0316 q 0,0.33267 0.191043,0.50955 0.191043,0.17687 0.47124,0.17687 0.280198,0 0.468694,-0.17687 0.191045,-0.17688 0.191045,-0.51377 0,-0.32846 -0.191045,-0.50534 -0.188496,-0.17686 -0.468694,-0.17686 -0.280197,0 -0.47124,0.17686 -0.191043,0.17688 -0.191043,0.50956 z m 2.305258,-1.11807 h 0.39737 v -0.16844 q 0,-0.28215 0.07133,-0.42111 0.07387,-0.13898 0.267459,-0.22531 0.196139,-0.0884 0.494166,-0.0884 0.30567,0 0.598604,0.0758 l -0.09679,0.4127 q -0.170667,-0.0336 -0.328595,-0.0336 -0.155383,0 -0.224158,0.061 -0.06622,0.059 -0.06622,0.22951 v 0.15792 H 26.0173 v 0.46533 h -0.534927 v 1.77079 h -0.715775 v -1.77079 h -0.39737 z m 1.737221,0 h 0.397371 v -0.16844 q 0,-0.28215 0.07133,-0.42111 0.07387,-0.13898 0.267461,-0.22531 0.196138,-0.0884 0.494165,-0.0884 0.305669,0 0.598604,0.0758 l -0.09679,0.4127 q -0.170664,-0.0336 -0.328594,-0.0336 -0.155383,0 -0.224157,0.061 -0.06622,0.059 -0.06622,0.22951 v 0.15792 h 0.534921 v 0.46533 h -0.534921 v 1.77079 h -0.715775 v -1.77079 h -0.397382 z"
       id="text10-2"
       aria-label="off" /><rect
       style="opacity:0.999;fill:#000000;stroke:#111111;stroke-width:0.491748;stroke-linejoin:round;stroke-dasharray:none;stroke-opacity:1;paint-order:markers fill stroke"
       id="rect11"
       width="0.94024807"
       height="6.1945753"
       x="38.877716"
       y="135.5722" /><path
       id="rect12"
       style="opacity:0.999;fill:none;stroke:#111111;stroke-width:0.491748;stroke-linejoin:round;stroke-dasharray:none;paint-order:markers fill stroke"
       d="m 31.419702,137.64722 c 0.686502,-0.49711 7.087312,0.61873 7.087312,0.61873 v 0.60626 c 0,0 -6.396756,1.03347 -7.0555,0.43107 -0.440312,-0.29709 -0.643503,-1.23802 -0.03181,-1.65606 z"
       sodipodi:nodetypes="ccccc" /><path
       id="rect12-8"
       style="opacity:0.999;fill:#000000;stroke:#111111;stroke-width:0.491748;stroke-linejoin:round;stroke-dasharray:none;paint-order:markers fill stroke"
       d="m 32.369431,134.29699 c 0.823527,-0.20051 6.326746,3.25348 6.326746,3.25348 l -0.229313,0.56122 c 0,0 -6.312423,-1.46283 -6.694375,-2.26964 -0.295228,-0.44156 -0.127424,-1.38944 0.596944,-1.54506 z"
       sodipodi:nodetypes="ccccc" /><path
       id="rect12-1"
       style="opacity:0.999;fill:#000000;stroke:#111111;stroke-width:0.491748;stroke-linejoin:round;stroke-dasharray:none;paint-order:markers fill stroke"
       d="m 31.627558,141.12647 c 0.44392,-0.72204 6.784334,-2.14141 6.784334,-2.14141 l 0.232075,0.56008 c 0,0 -5.513916,3.40342 -6.353083,3.09907 -0.5205,-0.10591 -1.068401,-0.89739 -0.663324,-1.51775 z"
       sodipodi:nodetypes="ccccc" /><path
       style="opacity:0.999;fill:none;fill-opacity:1;stroke:#111111;stroke-width:0.984403;stroke-linejoin:round;stroke-dasharray:none;stroke-opacity:1;paint-order:markers fill stroke"
       id="rect13"
       width="47.015598"
       height="179.01559"
       x="5.4922013"
       y="3.4922016"
       inkscape:path-effect="#path-effect13"
       sodipodi:type="rect"
       d="M 7.0797013,3.4922016 H 50.9203 a 1.5875,1.5875 45 0 1 1.5875,1.5875 l 0,175.8405984 a 1.5875,1.5875 135 0 1 -1.5875,1.5875 H 7.0797013 a 1.5875,1.5875 45 0 1 -1.5875,-1.5875 l 0,-175.8405984 a 1.5875,1.5875 135 0 1 1.5875,-1.5875 z"
       transform="matrix(1.0311387,0,0,1.0111567,-1.1606212,-1.0388732)" /><rect
       style="opacity:0.999;fill:none;stroke:#111111;stroke-width:0.4;stroke-linejoin:round;paint-order:markers fill stroke;stroke-dasharray:none"
       id="rect1"
       width="13.747181"
       height="13.74718"
       x="22.84042"
       y="107.97041" /><ellipse
       style="opacity:0.999;fill:#000000;stroke:#111111;stroke-width:0.503857;stroke-linejoin:round;stroke-dasharray:none;paint-order:markers fill stroke"
       id="path2"
       cx="30.500805"
       cy="113.76952"
       rx="1.8184842"
       ry="1.7060205" /><rect
       style="opacity:0.999;fill:#000000;stroke:#111111;stroke-width:0.456809;stroke-linejoin:round;stroke-dasharray:none;paint-order:markers fill stroke"
       id="rect2"
       width="1.1466322"
       height="3.6973715"
       x="33.816307"
       y="112.00661" /><rect
       style="opacity:0.999;fill:#000000;stroke:#111111;stroke-width:0.360877;stroke-linejoin:round;stroke-dasharray:none;paint-order:markers fill stroke"
       id="rect3"
       width="4.6827626"
       height="0.67971337"
       x="28.139898"
       y="109.05211" /><rect
       style="opacity:0.999;fill:#000000;stroke:#111111;stroke-width:0.365946;stroke-linejoin:round;stroke-dasharray:none;paint-order:markers fill stroke"
       id="rect4"
       width="2.645211"
       height="2.2133493"
       x="29.183039"
       y="110.78951" /><rect
       style="opacity:0.999;fill:#000000;stroke:#111111;stroke-width:0.435319;stroke-linejoin:round;stroke-dasharray:none;paint-order:markers fill stroke"
       id="rect5"
       width="0.78637409"
       height="1.810819"
       x="30.076714"
       y="109.21347" /><rect
       style="opacity:0.999;fill:#000000;stroke:#111111;stroke-width:0.379941;stroke-linejoin:round;stroke-dasharray:none;paint-order:markers fill stroke"
       id="rect6"
       width="3.0596938"
       height="2.0304408"
       x="31.406406"
       y="112.74529" /><path
       style="fill:#000000;stroke:#000000;stroke-width:0.264583px;stroke-linecap:butt;stroke-linejoin:miter;stroke-opacity:1"
       d="m 28.694729,112.87018 -1.655144,0.0212 a 1.8725784,1.8725784 134.58013 0 0 -1.84855,1.87584 l 0.0043,2.36578 2.099615,-0.0636 0,-0.90394 a 1.2641723,1.2641723 136.30078 0 1 1.321553,-1.26287 l 0.07819,0.004 z"
       id="path7"
       sodipodi:nodetypes="ccccccc"
       inkscape:path-effect="#path-effect7"
       inkscape:original-d="m 28.694729,112.87018 -3.507075,0.045 0.0077,4.21786 2.099615,-0.0636 v -2.22686 l 1.399741,0.0636 z"
       transform="matrix(1.1235978,0,0,1.0541095,-3.1654661,-6.2094838)" /><rect
       style="opacity:0.999;fill:#000000;stroke:#111111;stroke-width:0.429029;stroke-linejoin:round;stroke-dasharray:none;paint-order:markers fill stroke"
       id="rect7"
       width="3.3587263"
       height="0.2461101"
       x="24.551037"
       y="117.16364" /><path
       style="fill:none;stroke:#000000;stroke-width:0.4;stroke-linecap:butt;stroke-linejoin:miter;stroke-opacity:1;stroke-dasharray:none"
       d="m 26.24518,117.83291 v 3.18123"
       id="path8" /><path
       style="fill:none;stroke:#000000;stroke-width:0.4;stroke-linecap:butt;stroke-linejoin:miter;stroke-dasharray:none;stroke-opacity:1"
       d="m 26.965948,117.84608 0.332899,3.14204"
       id="path9"
       sodipodi:nodetypes="cc" /><path
       style="fill:none;stroke:#000000;stroke-width:0.4;stroke-linecap:butt;stroke-linejoin:miter;stroke-dasharray:none;stroke-opacity:1"
       d="m 25.518954,117.84416 -0.320053,3.18894"
       id="path10"
       sodipodi:nodetypes="cc" /><path
       style="fill:none;stroke:#000000;stroke-width:0.4;stroke-linecap:butt;stroke-linejoin:miter;stroke-dasharray:none;stroke-opacity:1"
       d="m 24.708539,117.82166 -0.597046,3.20565"
       id="path11"
       sodipodi:nodetypes="cc" /><path
       style="fill:none;stroke:#000000;stroke-width:0.4;stroke-linecap:butt;stroke-linejoin:miter;stroke-dasharray:none;stroke-opacity:1"
       d="m 27.778292,117.79338 0.684766,3.17224"
       id="path12"
       sodipodi:nodetypes="cc" /><ellipse
       style="opacity:0.999;fill:#000000;stroke:#111111;stroke-width:0.393026;stroke-linejoin:round;stroke-dasharray:none;paint-order:markers fill stroke"
       id="path14"
       cx="32.688831"
       cy="109.34347"
       rx="0.58890307"
       ry="0.6445564" /><ellipse
       style="opacity:0.999;fill:#000000;stroke:#111111;stroke-width:0.393026;stroke-linejoin:round;stroke-dasharray:none;paint-order:markers fill stroke"
       id="path15"
       cx="28.280018"
       cy="109.32813"
       rx="0.60481942"
       ry="0.62920982" /><path
       style="fill:#000000;stroke-width:0.37468"
       d="m 46.163117,56.240226 c 0.09436,-0.181122 -1.35824,-0.995917 -2.139458,-1.200071 -0.292063,-0.07632 -0.73556,-0.123749 -0.985546,-0.105383 l -0.454516,0.03338 0.03716,-0.618819 c 0.057,-0.94863 -0.461934,-1.252782 -1.394729,-0.817466 l -0.380004,0.177337 -0.03357,-0.456688 c -0.02492,-0.339247 -0.134802,-0.494138 -0.427287,-0.602301 -0.252617,-0.09341 -0.402905,-0.270309 -0.419301,-0.493504 -0.02877,-0.392009 -0.578793,-0.784292 -1.05099,-0.749611 -0.926085,0.06802 -1.269351,1.226955 -0.491325,1.658807 0.298154,0.165495 0.570584,0.182743 1.077552,0.06822 l 0.678514,-0.153271 0.03289,0.447873 c 0.047,0.639844 0.382023,0.821678 1.181256,0.641136 l 0.66624,-0.150502 -0.03552,0.590892 c -0.04489,0.747124 0.171955,0.912 1.334394,1.014586 0.531592,0.04691 1.179701,0.241268 1.622322,0.486505 0.779265,0.431754 1.04896,0.483983 1.181847,0.228883 z m -7.428655,-3.537743 c -0.06309,-0.05445 -0.123951,-0.224743 -0.135237,-0.378412 -0.01457,-0.198443 0.09295,-0.287734 0.371079,-0.308161 0.318462,-0.02339 0.387179,0.03565 0.367966,0.316154 -0.02342,0.341385 -0.382328,0.561589 -0.603808,0.370419 z m -5.080983,-0.95964 c 0.703595,-0.17307 1.475285,-0.381747 1.714866,-0.463724 0.368112,-0.125961 0.423515,-0.109002 0.357594,0.10944 -0.11108,0.36808 0.162761,0.300567 0.53139,-0.131013 0.172791,-0.2023 0.709534,-0.603707 1.192769,-0.892013 0.483224,-0.288308 1.000736,-0.722774 1.150019,-0.965487 l 0.27143,-0.44129 -0.338205,-0.396517 c -0.829495,-0.972511 -3.035257,-1.762712 -5.407592,-1.937234 -1.622434,-0.119356 -4.902153,0.156241 -6.570534,0.552124 -1.176354,0.279134 -4.500834,1.260571 -8.021633,2.368112 l -0.767847,0.241545 -2.645934,-1.130005 c -1.513796,-0.646503 -2.83246,-1.116308 -3.081871,-1.09799 -0.673053,0.04943 -0.772336,0.480505 -0.622225,2.701566 l 0.13224,1.956661 0.171501,0.257165 c 0.260577,0.181592 0.947199,0.23956 2.042135,0.237533 0.824882,-0.0015 1.707323,0.0066 1.960977,0.01805 0.253656,0.01146 2.044292,-0.01636 3.979192,-0.06181 1.934905,-0.04544 4.173732,-0.07297 4.975175,-0.06117 2.05804,0.03028 7.451476,-0.488808 8.976553,-0.863943 z m -9.086207,0.414049 c -2.052678,0.04204 -4.28699,0.0607 -8.575086,0.07163 -0.7583,0.0019 -1.499918,-0.0089 -1.627436,-0.02402 -0.127518,-0.01512 -0.610335,0.06311 -1.092144,0.02517 -1.443438,-0.113689 -1.356697,-0.151767 -1.47091,-2.016183 -0.170347,-2.780821 -0.0087,-2.476063 1.805421,-1.778032 3.310636,1.273825 3.896246,1.786324 4.231745,1.761682 0.197519,-0.01451 1.323269,-0.331749 2.501666,-0.704977 5.487945,-1.738186 7.06245,-2.142086 8.868753,-2.275041 l 1.320401,-0.09719 0.547257,0.764214 c 0.300995,0.420316 0.562831,0.77998 0.581862,0.799257 0.01903,0.01927 1.028959,0.07117 2.244282,0.115328 l 2.209672,0.08027 0.35282,-0.491478 0.352822,-0.491479 0.640405,0.374722 c 1.218923,0.713233 0.894214,1.255145 -1.296649,2.164013 -2.500701,1.037398 -6.393742,1.615608 -11.594881,1.722116 z m 6.365205,-2.18309 c 0.362245,-0.156903 0.434175,-0.268235 0.37365,-0.578317 -0.165493,-0.84783 -2.251641,-1.162875 -4.255726,-0.64269 -1.339357,0.347647 -4.230923,1.511933 -4.217251,1.69807 0.0058,0.07963 0.611267,0.108366 1.345373,0.06388 0.734106,-0.04449 1.990163,-0.07541 2.791224,-0.06871 1.643281,0.01373 3.295287,-0.183136 3.96273,-0.47223 z m -4.419925,0.05157 c -0.698947,-0.01339 -1.308722,-0.05707 -1.355066,-0.09707 -0.210607,-0.18179 2.203827,-0.805471 3.502654,-0.904787 1.135552,-0.08679 1.458432,-0.06031 1.689048,0.138752 0.228914,0.197585 0.250136,0.286638 0.107671,0.451751 -0.213185,0.247071 -2.122938,0.44624 -3.944307,0.411354 z m 7.273099,-1.698221 c -0.846372,-0.04986 -1.607758,-0.08993 -1.691959,-0.08905 -0.0842,8.99e-4 -0.329569,-0.260701 -0.545241,-0.581298 l -0.392133,-0.582901 0.652246,-0.04788 c 0.665798,-0.04887 2.498292,0.134464 3.563299,0.356503 0.655716,0.136707 0.883847,0.4274 0.622774,0.793559 -0.19592,0.274776 -0.155608,0.272018 -2.208986,0.15105 z"
       id="path1-1"
       sodipodi:nodetypes="sscsscsscssscsscsssssssscssssssscsssscssscsccssssssccssscscscscccsssssccssssccsssccccsssccsc" /><path
       style="fill:none;stroke:#000000;stroke-width:0.995465;stroke-linecap:round;stroke-linejoin:round;stroke-miterlimit:10;stroke-dasharray:none;stroke-opacity:1;paint-order:stroke markers fill"
       id="rect1-7"
       width="67.661438"
       height="19.257488"
       x="95.506737"
       y="5.9854355"
       inkscape:path-effect="#path-effect2-16"
       sodipodi:type="rect"
       d="m 99.865695,5.9854355 h 59.555075 a 3.7474031,3.7474031 45 0 1 3.7474,3.7474031 V 21.144202 a 4.0987215,4.0987215 135 0 1 -4.09872,4.098722 H 99.514376 a 4.0076394,4.0076394 45 0 1 -4.007639,-4.00764 V 10.344393 a 4.3589578,4.3589578 135 0 1 4.358958,-4.3589575 z"
       ry="0"
       transform="matrix(0.59638787,0,0,0.70478578,-48.605378,40.258752)" /><path
       style="opacity:0.999;fill:none;stroke:#111111;stroke-width:0.4;stroke-linejoin:round;stroke-dasharray:none;stroke-opacity:1;paint-order:markers fill stroke"
       id="rect10-7"
       width="21.569338"
       height="11.007642"
       x="19.150742"
       y="134.43864"
       inkscape:path-effect="#path-effect14-6"
       sodipodi:type="rect"
       d="m 19.944492,134.43864 h 19.981837 a 0.79375002,0.79375002 45 0 1 0.79375,0.79375 v 9.42015 a 0.79375002,0.79375002 135 0 1 -0.79375,0.79375 H 19.944492 a 0.79375002,0.79375002 45 0 1 -0.79375,-0.79375 v -9.42015 a 0.79375002,0.79375002 135 0 1 0.79375,-0.79375 z"
       ry="0"
       transform="matrix(-1.6386733,0,0,1.5773274,77.779373,-205.73506)" /></g></svg>
