<?xml version="1.0" encoding="UTF-8" standalone="no"?>
<!-- Created with Inkscape (http://www.inkscape.org/) -->

<svg
   width="200mm"
   height="18mm"
   viewBox="0 0 200 18"
   version="1.1"
   id="svg1"
   inkscape:version="1.4.3 (0d15f75, 2025-12-25)"
   sodipodi:docname="as33flaps.svg"
   xml:space="preserve"
   xmlns:inkscape="http://www.inkscape.org/namespaces/inkscape"
   xmlns:sodipodi="http://sodipodi.sourceforge.net/DTD/sodipodi-0.dtd"
   xmlns="http://www.w3.org/2000/svg"
   xmlns:svg="http://www.w3.org/2000/svg"><sodipodi:namedview
     id="namedview1"
     pagecolor="#ffffff"
     bordercolor="#000000"
     borderopacity="0.25"
     inkscape:showpageshadow="2"
     inkscape:pageopacity="0.0"
     inkscape:pagecheckerboard="0"
     inkscape:deskcolor="#d1d1d1"
     inkscape:document-units="mm"
     inkscape:zoom="1.0167041"
     inkscape:cx="489.81803"
     inkscape:cy="285.72718"
     inkscape:window-width="5120"
     inkscape:window-height="1369"
     inkscape:window-x="-8"
     inkscape:window-y="-8"
     inkscape:window-maximized="1"
     inkscape:current-layer="layer1"
     showguides="true"><sodipodi:guide
       position="115.54493,2.906293"
       orientation="0,-1"
       id="guide1"
       inkscape:locked="false" /><sodipodi:guide
       position="40.596866,14.096455"
       orientation="0,-1"
       id="guide2"
       inkscape:locked="false" /></sodipodi:namedview><defs
     id="defs1"><inkscape:path-effect
       effect="fillet_chamfer"
       id="path-effect2"
       is_visible="true"
       lpeversion="1"
       nodesatellites_param="F,0,0,1,0,4.3589578,0,1 @ F,0,0,1,0,3.7474031,0,1 @ F,0,0,1,0,4.0987215,0,1 @ F,0,0,1,0,4.0076394,0,1"
       radius="0"
       unit="px"
       method="auto"
       mode="F"
       chamfer_steps="1"
       flexible="false"
       use_knot_distance="true"
       apply_no_radius="true"
       apply_with_radius="true"
       only_selected="false"
       hide_knots="false" /><inkscape:path-effect
       effect="fillet_chamfer"
       id="path-effect2-1"
       is_visible="true"
       lpeversion="1"
       nodesatellites_param="F,0,0,1,0,4.3589578,0,1 @ F,0,0,1,0,3.7474031,0,1 @ F,0,0,1,0,4.0987215,0,1 @ F,0,0,1,0,4.0076394,0,1"
       radius="0"
       unit="px"
       method="auto"
       mode="F"
       chamfer_steps="1"
       flexible="false"
       use_knot_distance="true"
       apply_no_radius="true"
       apply_with_radius="true"
       only_selected="false"
       hide_knots="false" /><inkscape:path-effect
       effect="fillet_chamfer"
       id="path-effect2-16"
       is_visible="true"
       lpeversion="1"
       nodesatellites_param="F,0,0,1,0,4.3589578,0,1 @ F,0,0,1,0,3.7474031,0,1 @ F,0,0,1,0,4.0987215,0,1 @ F,0,0,1,0,4.0076394,0,1"
       radius="0"
       unit="px"
       method="auto"
       mode="F"
       chamfer_steps="1"
       flexible="false"
       use_knot_distance="true"
       apply_no_radius="true"
       apply_with_radius="true"
       only_selected="false"
       hide_knots="false" /></defs><g
     inkscape:label="Ebene 1"
     inkscape:groupmode="layer"
     id="layer1"><path
       d="m 92.774287,12.243748 c 0.58134,-0.111446 2.0925,-0.34144 3.35813,-0.51109 2.20151,-0.295102 2.41551,-0.304598 4.942373,-0.219307 7.63486,0.257709 18.719,0.186199 20.75795,-0.133921 1.34283,-0.210827 1.98736,-0.500689 2.12626,-0.956219 0.23735,-0.778414 -0.25194,-1.3818675 -1.6268,-2.0063573 -2.14842,-0.9758624 -4.6226,-1.4591049 -8.41124,-1.6428393 -4.2222,-0.2047659 -11.29391,0.7706237 -15.197703,2.0961875 -2.13289,0.7242341 -7.4274,2.7913431 -7.51081,2.9323941 -0.12172,0.205871 -0.10292,0.366027 0.061,0.519835 0.17961,0.168494 0.22346,0.166198 1.5008,-0.07868 z M 114.34253,10.96439 c -0.3485,-0.0099 -2.42055,-0.01678 -4.60455,-0.01522 -2.184,0.0016 -4.6192,-0.02322 -5.41154,-0.05505 -0.79234,-0.03183 -2.0407,-0.0731 -2.77414,-0.09171 l -1.33353,-0.03383 -0.0117,-0.591359 c -0.006,-0.3252533 -0.0562,-0.6756042 -0.11048,-0.7785728 -0.0835,-0.1581912 0.0279,-0.2203122 0.71842,-0.4007301 1.92361,-0.5025907 5.0277,-1.0429769 7.83872,-1.3646246 2.64988,-0.3032165 6.56592,-0.2040996 9.3816,0.237432 1.82109,0.2855734 4.57924,1.3506964 4.98139,1.9236752 0.50105,0.7139063 -0.23451,0.8825993 -4.59182,1.0530973 -1.89681,0.07423 -3.73388,0.126802 -4.08238,0.116874 z M 96.486667,10.49123 c 0.96903,-0.382396 1.98013,-0.7292143 2.24689,-0.7707173 0.43182,-0.067175 0.49756,-0.045818 0.59939,0.194646 0.22097,0.5217673 -0.0879,0.6681963 -1.9213,0.9107713 -0.91051,0.12047 -1.88752,0.250882 -2.17116,0.2898 -0.37475,0.05143 -0.0341,-0.119261 1.24618,-0.6245 z"
       style="fill:#000000;stroke-width:0.845796;stroke-dasharray:none"
       id="path1-4" /><path
       d="m 192.74438,11.745322 c 1.17806,-0.220597 1.71751,-0.643153 1.69697,-1.329269 -0.0306,-1.0238755 -2.57428,-2.2550461 -5.54733,-2.6850029 -2.40492,-0.3477978 -3.66017,-0.4094655 -6.45478,-0.3171295 -3.82054,0.1262408 -7.72313,0.6911014 -11.11367,1.6086004 -1.43276,0.3877126 -1.07037,0.4051267 -5.3459,-0.2569239 -1.42207,-0.2202024 -2.6958,-0.3812721 -2.83053,-0.357931 -0.34305,0.059438 -0.30436,0.4608494 0.0602,0.6245646 0.16041,0.072035 1.58224,0.713862 3.15963,1.4262813 l 2.86796,1.295307 1.37431,0.0853 c 3.04216,0.188824 6.6739,0.271853 11.04722,0.25256 2.53175,-0.01117 4.99172,-0.01679 5.46662,-0.01249 1.45068,0.01314 4.84233,-0.188398 5.61931,-0.33387 z m -9.89752,-0.324916 c -5.14813,0.01022 -6.55798,-0.009 -9.4416,-0.128896 -2.50292,-0.104039 -2.42135,-0.08602 -2.31313,-0.510895 0.0497,-0.195286 0.0577,-0.496568 0.0176,-0.669515 l -0.0727,-0.3144535 1.69615,-0.4098832 c 3.7147,-0.8976753 6.27506,-1.2588026 9.60954,-1.3553833 5.24602,-0.1519336 9.13774,0.5629038 10.8735,1.997295 0.90317,0.746358 0.48741,0.974438 -2.20319,1.208662 -2.056,0.178976 -1.6631,0.170169 -8.16623,0.18307 z m -13.88211,-0.618398 c -0.25468,-0.14614 -1.07842,-0.520132 -1.83054,-0.8310914 -0.75212,-0.3109584 -1.35633,-0.5772315 -1.34269,-0.5917117 0.0137,-0.014504 0.3616,0.037144 0.77325,0.1147186 0.41165,0.077576 1.37346,0.2576406 2.13735,0.4001449 1.60356,0.2991436 1.81095,0.4154266 1.53712,0.8619116 -0.23571,0.384344 -0.65831,0.399608 -1.27449,0.04601 z"
       style="fill:#000000;stroke-width:0.434808"
       id="path1-7" /><path
       style="fill:none;stroke:#000000;stroke-width:0.995465;stroke-linecap:round;stroke-linejoin:round;stroke-miterlimit:10;stroke-dasharray:none;stroke-opacity:1;paint-order:stroke markers fill"
       id="rect1"
       width="67.661438"
       height="19.257488"
       x="95.506737"
       y="5.9854355"
       inkscape:path-effect="#path-effect2"
       sodipodi:type="rect"
       d="m 99.865695,5.9854355 h 59.555075 a 3.7474031,3.7474031 45 0 1 3.7474,3.7474031 V 21.144202 a 4.0987215,4.0987215 135 0 1 -4.09872,4.098722 H 99.514376 a 4.0076394,4.0076394 45 0 1 -4.007639,-4.00764 V 10.344393 a 4.3589578,4.3589578 135 0 1 4.358958,-4.3589575 z"
       ry="0"
       transform="matrix(0.58733909,0,0,0.66223335,31.855951,-0.82453998)" /><path
       style="fill:none;stroke:#000000;stroke-width:0.995465;stroke-linecap:round;stroke-linejoin:round;stroke-miterlimit:10;stroke-dasharray:none;stroke-opacity:1;paint-order:stroke markers fill"
       id="rect1-3"
       width="67.661438"
       height="19.257488"
       x="95.506737"
       y="5.9854355"
       inkscape:path-effect="#path-effect2-1"
       sodipodi:type="rect"
       d="m 99.865695,5.9854355 h 59.555075 a 3.7474031,3.7474031 45 0 1 3.7474,3.7474031 V 21.144202 a 4.0987215,4.0987215 135 0 1 -4.09872,4.098722 H 99.514376 a 4.0076394,4.0076394 45 0 1 -4.007639,-4.00764 V 10.344393 a 4.3589578,4.3589578 135 0 1 4.358958,-4.3589575 z"
       ry="0"
       transform="matrix(0.58733909,0,0,0.66223335,101.99144,-0.64171521)" /><path
       style="fill:none;stroke:#000000;stroke-width:0.995465;stroke-linecap:round;stroke-linejoin:round;stroke-miterlimit:10;stroke-dasharray:none;stroke-opacity:1;paint-order:stroke markers fill"
       id="rect1-7"
       width="67.661438"
       height="19.257488"
       x="95.506737"
       y="5.9854355"
       inkscape:path-effect="#path-effect2-16"
       sodipodi:type="rect"
       d="m 99.865695,5.9854355 h 59.555075 a 3.7474031,3.7474031 45 0 1 3.7474,3.7474031 V 21.144202 a 4.0987215,4.0987215 135 0 1 -4.09872,4.098722 H 99.514376 a 4.0076394,4.0076394 45 0 1 -4.007639,-4.00764 V 10.344393 a 4.3589578,4.3589578 135 0 1 4.358958,-4.3589575 z"
       ry="0"
       transform="matrix(0.58733909,0,0,0.66223335,-52.613878,-1.0508066)" /><g
       id="g2"
       transform="matrix(0.60962463,0,0,0.60962463,-5.0485971,0.20477808)"><path
         d="m 31.776055,18.714181 c 0.775991,-0.419833 1.190038,-1.095583 1.174691,-1.917164 -0.01652,-0.884224 -0.464809,-1.490118 -1.46155,-1.975376 -1.241523,-0.604421 -2.902621,-0.160976 -3.505093,0.935722 l -0.261912,0.476765 -0.647287,-0.623543 c -1.089145,-1.049205 -2.927393,-1.004101 -3.663577,0.08988 l -0.269467,0.400429 -0.404696,-0.366207 c -0.995138,-0.900491 -2.445051,-0.877918 -3.108325,0.230335 -0.321946,0.537933 -0.341275,0.727198 -0.251376,1.005256 l 0.380566,0.615626 c 0.467817,0.50429 0.646718,0.68309 1.625393,0.664808 0.898917,-0.01679 1.177469,-0.287977 1.442016,-0.627446 l 0.312191,-0.400612 0.284937,0.417635 c 0.443834,0.650547 1.383227,0.995702 2.39372,0.879527 0.722416,-0.08306 0.958733,-0.204467 1.423962,-0.731556 0.306791,-0.347583 0.559108,-0.561669 0.560713,-0.475762 0.0057,0.304266 0.959552,1.245445 1.480603,1.460912 0.708401,0.292945 1.895668,0.264754 2.494492,-0.05921 z m -2.249794,-0.854336 c -0.569591,-0.374372 -0.688905,-0.558349 -0.695111,-1.071861 -0.01104,-0.90421 0.840709,-1.498028 1.797133,-1.253079 0.874515,0.223978 1.278764,0.629589 1.291204,1.295547 0.01998,1.069944 -1.401359,1.681305 -2.393226,1.029393 z M 24.566964,17.37688 c -0.723526,-0.649249 -0.285259,-1.535794 0.768967,-1.555487 0.577672,-0.01079 1.242271,0.479481 1.250546,0.922532 0.0079,0.419933 -0.633291,0.957717 -1.153361,0.967433 -0.265837,0.005 -0.655609,-0.145549 -0.866152,-0.334478 z m -3.888165,-0.145282 c -0.458851,-0.322542 -0.314181,-1.015081 0.256304,-1.226922 0.850107,-0.315675 1.627817,0.821373 0.856817,1.252708 -0.438165,0.245138 -0.73757,0.238205 -1.113122,-0.02581 z m 14.014733,0.689313 c 0.0084,-0.06799 0.16237,-1.205035 0.361251,-2.525614 0.36771,-2.44162 0.550293,-2.861384 1.250306,-2.874461 0.390159,-0.0072 1.046077,0.471037 1.051603,0.766881 0.0026,0.138051 -0.409523,1.11691 -0.915789,2.175247 -0.506259,1.058338 -2.877774,5.381568 -2.752803,5.716381 0.190013,0.180261 0.478588,0.07711 0.757711,-0.156586 0.40217,-0.306069 2.567629,-4.271272 2.901569,-4.89274 0.279868,-0.520839 0.595857,-0.887819 0.767312,-0.891126 0.160319,-0.0031 1.244793,0.05019 2.409941,0.118406 10.898017,0.638048 30.784439,0.779833 33.765032,0.240733 1.999653,-0.361674 2.802429,-1.018615 2.547346,-2.084577 -0.343017,-1.433452 -4.244734,-3.368783 -8.686089,-4.3084762 -4.012845,-0.849044 -11.354829,-1.21356 -15.899569,-0.789393 -4.987211,0.465466 -9.812082,1.322606 -14.307901,2.5418032 -2.693769,0.730511 -3.415579,1.038499 -3.5952,1.534064 -0.114079,0.314744 -0.49417,3.3291 -0.624372,4.951689 l -0.09455,1.178282 -0.09392,2.241196 c -0.03528,0.841948 0.773349,0.16544 0.773349,0.16544 z M 65.50652,14.948148 c -0.284049,-0.01497 -3.767287,-0.04889 -7.740532,-0.0754 -9.142607,-0.06101 -11.113302,-0.10439 -15.115578,-0.332775 -1.7854,-0.101882 -3.47364,-0.180996 -3.751655,-0.175802 -0.483032,0.009 -0.501036,-0.01696 -0.405445,-0.584821 0.06657,-0.395517 0.0043,-0.777558 -0.186271,-1.142311 -0.157472,-0.30143 -0.259087,-0.576303 -0.225821,-0.610836 0.124123,-0.128849 4.724128,-1.173256 6.790254,-1.541697 4.63047,-0.8257102 7.167542,-1.0788232 11.587085,-1.1559742 4.713209,-0.0822 8.088376,0.201028 11.617551,0.9751612 3.090504,0.677905 6.74969,2.223967 7.351563,3.106144 0.408905,0.599342 0.07155,0.880759 -1.368616,1.14171 -1.021441,0.185084 -7.16219,0.469843 -8.552535,0.396605 z"
         style="fill:#000000;stroke-width:0.649892"
         id="path1-2"
         sodipodi:nodetypes="cscscsscssccsscssscsccscsssssccscscccssccsccssssscsssscscsssscccsccsssss" /><circle
         style="fill:none;stroke:#000000;stroke-width:0.750363;stroke-linecap:round;stroke-linejoin:round;stroke-miterlimit:10;stroke-dasharray:none;stroke-opacity:1;paint-order:stroke markers fill"
         id="path2"
         cx="18.493496"
         cy="16.745352"
         r="0.8188929" /></g></g></svg>
