<?xml version="1.0" encoding="UTF-8" standalone="no"?>
<!-- Created with Inkscape (http://www.inkscape.org/) -->

<svg
   width="210mm"
   height="297mm"
   viewBox="0 0 210 297"
   version="1.1"
   id="svg1"
   xml:space="preserve"
   inkscape:version="1.4.3 (0d15f75, 2025-12-25)"
   sodipodi:docname="as33brakes.svg"
   xmlns:inkscape="http://www.inkscape.org/namespaces/inkscape"
   xmlns:sodipodi="http://sodipodi.sourceforge.net/DTD/sodipodi-0.dtd"
   xmlns="http://www.w3.org/2000/svg"
   xmlns:svg="http://www.w3.org/2000/svg"><sodipodi:namedview
     id="namedview1"
     pagecolor="#ffffff"
     bordercolor="#666666"
     borderopacity="1.0"
     inkscape:showpageshadow="2"
     inkscape:pageopacity="0.0"
     inkscape:pagecheckerboard="0"
     inkscape:deskcolor="#d1d1d1"
     inkscape:document-units="mm"
     inkscape:zoom="4.1585017"
     inkscape:cx="-13.70686"
     inkscape:cy="69.375949"
     inkscape:window-width="1722"
     inkscape:window-height="1211"
     inkscape:window-x="2155"
     inkscape:window-y="194"
     inkscape:window-maximized="0"
     inkscape:current-layer="layer1" /><defs
     id="defs1"><inkscape:path-effect
       effect="fillet_chamfer"
       id="path-effect2"
       is_visible="true"
       lpeversion="1"
       nodesatellites_param="F,0,0,1,0,4.3589578,0,1 @ F,0,0,1,0,3.7474031,0,1 @ F,0,0,1,0,4.0987215,0,1 @ F,0,0,1,0,4.0076394,0,1"
       radius="0"
       unit="px"
       method="auto"
       mode="F"
       chamfer_steps="1"
       flexible="false"
       use_knot_distance="true"
       apply_no_radius="true"
       apply_with_radius="true"
       only_selected="false"
       hide_knots="false" /></defs><g
     inkscape:label="Ebene 1"
     inkscape:groupmode="layer"
     id="layer1"><path
       d="m 6.1396989,11.887094 c 0.58134,-0.111446 2.0925,-0.34144 3.35813,-0.51109 2.2015101,-0.295102 2.4155101,-0.304598 4.9423731,-0.219307 7.63486,0.257709 18.719,0.186199 20.75795,-0.133921 1.34283,-0.210827 1.98736,-0.500689 2.12626,-0.956219 0.23735,-0.7784141 -0.25194,-1.3818681 -1.6268,-2.0063571 -2.14842,-0.975863 -4.6226,-1.459105 -8.41124,-1.64284 -4.2222,-0.204765 -11.29391,0.770624 -15.197703,2.096188 -2.1328901,0.724234 -7.4274001,2.7913431 -7.5108101,2.9323941 -0.12172,0.205871 -0.10292,0.366027 0.061,0.519835 0.17961,0.168494 0.22346,0.166198 1.5008,-0.07868 z M 27.707942,10.607736 c -0.3485,-0.0099 -2.42055,-0.01678 -4.60455,-0.01522 -2.184,0.0016 -4.6192,-0.02322 -5.41154,-0.05505 -0.79234,-0.03183 -2.0407,-0.0731 -2.77414,-0.09171 l -1.33353,-0.03383 -0.0117,-0.5913591 c -0.006,-0.325253 -0.0562,-0.675604 -0.11048,-0.778573 -0.0835,-0.158191 0.0279,-0.220312 0.71842,-0.40073 1.92361,-0.502591 5.0277,-1.042977 7.83872,-1.364624 2.64988,-0.303217 6.56592,-0.2041 9.3816,0.237431 1.82109,0.285574 4.57924,1.350697 4.98139,1.923676 0.50105,0.7139061 -0.23451,0.8825991 -4.59182,1.0530971 -1.89681,0.07423 -3.73388,0.126802 -4.08238,0.116874 z M 9.8520789,10.134576 C 10.821109,9.7521799 11.832209,9.4053619 12.098969,9.3638589 c 0.43182,-0.06717 0.49756,-0.04582 0.59939,0.194646 0.22097,0.5217671 -0.0879,0.6681961 -1.9213,0.9107711 -0.9105101,0.12047 -1.8875201,0.250882 -2.1711601,0.2898 -0.37475,0.05143 -0.0341,-0.119261 1.24618,-0.6245 z"
       style="fill:#000000;stroke-width:0.845796;stroke-dasharray:none"
       id="path1-4-1" /><path
       style="fill:none;stroke:#000000;stroke-width:0.995465;stroke-linecap:round;stroke-linejoin:round;stroke-miterlimit:10;stroke-dasharray:none;stroke-opacity:1;paint-order:stroke markers fill"
       id="rect1"
       width="67.661438"
       height="19.257488"
       x="95.506737"
       y="5.9854355"
       inkscape:path-effect="#path-effect2"
       sodipodi:type="rect"
       d="m 99.865695,5.9854355 h 59.555075 a 3.7474031,3.7474031 45 0 1 3.7474,3.7474031 V 21.144202 a 4.0987215,4.0987215 135 0 1 -4.09872,4.098722 H 99.514376 a 4.0076394,4.0076394 45 0 1 -4.007639,-4.00764 V 10.344393 a 4.3589578,4.3589578 135 0 1 4.358958,-4.3589575 z"
       ry="0"
       transform="matrix(0.58733909,0,0,0.66223335,-54.778637,-2.2395281)" /><rect
       style="opacity:0.999;fill:#000000;stroke-width:1.0324;stroke-linejoin:round;paint-order:markers fill stroke"
       id="rect2"
       width="1.2597044"
       height="2.3844404"
       x="24.287296"
       y="4.2948093" /><rect
       style="opacity:0.999;fill:#000000;stroke-width:1.0324;stroke-linejoin:round;paint-order:markers fill stroke"
       id="rect3"
       width="2.654377"
       height="1.0347571"
       x="23.567467"
       y="3.5299892" /><ellipse
       style="opacity:0.999;fill:none;stroke:#000000;stroke-width:0.453;stroke-linejoin:round;stroke-dasharray:none;stroke-opacity:1;paint-order:markers fill stroke"
       id="path3"
       cx="21.925358"
       cy="5.2118664"
       rx="1.0169291"
       ry="1.067148" /><ellipse
       style="opacity:0.999;fill:none;stroke:#000000;stroke-width:0.404;stroke-linejoin:round;stroke-dasharray:none;stroke-opacity:1;paint-order:markers fill stroke"
       id="path3-2"
       cx="19.721249"
       cy="5.434679"
       rx="0.90654629"
       ry="0.95131415" /><ellipse
       style="opacity:0.999;fill:none;stroke:#000000;stroke-width:0.46;stroke-linejoin:round;stroke-dasharray:none;stroke-opacity:1;paint-order:markers fill stroke"
       id="path3-2-5"
       cx="17.666718"
       cy="5.6671429"
       rx="0.8161338"
       ry="0.83840692" /><ellipse
       style="opacity:0.999;fill:none;stroke:#000000;stroke-width:0.400652;stroke-linejoin:round;stroke-dasharray:none;stroke-opacity:1;paint-order:markers fill stroke"
       id="path3-2-5-9"
       cx="15.780155"
       cy="5.9393635"
       rx="0.71083921"
       ry="0.73023874" /><ellipse
       style="opacity:0.999;fill:none;stroke:#000000;stroke-width:0.361912;stroke-linejoin:round;stroke-dasharray:none;stroke-opacity:1;paint-order:markers fill stroke"
       id="path3-2-5-9-4"
       cx="14.059551"
       cy="6.2885761"
       rx="0.64210618"
       ry="0.65962994" /><ellipse
       style="opacity:0.999;fill:none;stroke:#000000;stroke-width:0.423;stroke-linejoin:round;stroke-dasharray:none;stroke-opacity:1;paint-order:markers fill stroke"
       id="path3-2-5-9-4-3"
       cx="12.17963"
       cy="6.4817677"
       rx="0.59405929"
       ry="0.56803805" /><ellipse
       style="opacity:0.999;fill:none;stroke:#000000;stroke-width:0.393;stroke-linejoin:round;stroke-dasharray:none;stroke-opacity:1;paint-order:markers fill stroke"
       id="path3-2-5-9-4-3-7"
       cx="10.253624"
       cy="6.6065807"
       rx="0.51926249"
       ry="0.53343374" /><ellipse
       style="opacity:0.999;fill:none;stroke:#000000;stroke-width:0.353;stroke-linejoin:round;stroke-dasharray:none;stroke-opacity:1;paint-order:markers fill stroke"
       id="path3-2-5-9-4-3-8"
       cx="8.3115616"
       cy="6.4697018"
       rx="0.4490661"
       ry="0.46132159" /><ellipse
       style="opacity:0.999;fill:none;stroke:#000000;stroke-width:0.314;stroke-linejoin:round;stroke-dasharray:none;stroke-opacity:1;paint-order:markers fill stroke"
       id="path3-2-5-9-4-3-86"
       cx="6.5365872"
       cy="6.2021656"
       rx="0.37886971"
       ry="0.38920945" /></g></svg>
