<?xml version="1.0" encoding="UTF-8" standalone="no"?>
<!-- Created with Inkscape (http://www.inkscape.org/) -->

<svg
   width="40mm"
   height="100mm"
   viewBox="0 0 40 100"
   version="1.1"
   id="svg1"
   xml:space="preserve"
   inkscape:version="1.4.3 (0d15f75, 2025-12-25)"
   sodipodi:docname="logo2.svg"
   xmlns:inkscape="http://www.inkscape.org/namespaces/inkscape"
   xmlns:sodipodi="http://sodipodi.sourceforge.net/DTD/sodipodi-0.dtd"
   xmlns="http://www.w3.org/2000/svg"
   xmlns:svg="http://www.w3.org/2000/svg"><sodipodi:namedview
     id="namedview1"
     pagecolor="#ffffff"
     bordercolor="#000000"
     borderopacity="0.25"
     inkscape:showpageshadow="2"
     inkscape:pageopacity="0.0"
     inkscape:pagecheckerboard="0"
     inkscape:deskcolor="#d1d1d1"
     inkscape:document-units="mm"
     inkscape:zoom="2.0334082"
     inkscape:cx="-207.28745"
     inkscape:cy="160.56786"
     inkscape:window-width="5120"
     inkscape:window-height="1369"
     inkscape:window-x="-8"
     inkscape:window-y="-8"
     inkscape:window-maximized="1"
     inkscape:current-layer="layer1" /><defs
     id="defs1"><inkscape:path-effect
       effect="fillet_chamfer"
       id="path-effect3"
       is_visible="true"
       lpeversion="1"
       nodesatellites_param="F,0,0,1,0,1.5875,0,1 @ F,0,0,1,0,1.5875,0,1 @ F,0,0,1,0,1.5875,0,1 @ F,0,0,1,0,1.5875,0,1"
       radius="6"
       unit="px"
       method="auto"
       mode="F"
       chamfer_steps="1"
       flexible="false"
       use_knot_distance="true"
       apply_no_radius="true"
       apply_with_radius="true"
       only_selected="false"
       hide_knots="false" /></defs><g
     inkscape:label="Ebene 1"
     inkscape:groupmode="layer"
     id="layer1"><path
       style="fill:#000000"
       id="path1" /><path
       style="fill:#000000;stroke-width:0.454823"
       d="m 3.7609082,87.349815 c 0,-0.09224 0.3632155,-0.70596 0.8071464,-1.363838 L 5.375202,84.789838 h 4.2644675 c 4.2644665,0 4.2644665,0 4.1573855,0.441243 -0.222083,0.91512 -0.677312,1.553107 -1.369321,1.919051 -0.670126,0.354371 -0.83588,0.367379 -4.6807772,0.367379 -2.6652207,0 -3.9860486,-0.05557 -3.9860486,-0.167696 z m 10.4293428,0.01905 c 0,-0.08176 0.36212,-0.695497 0.804713,-1.363836 l 0.804717,-1.215164 h 4.266898 c 4.266897,0 4.266897,0 4.159816,0.441239 -0.230881,0.95138 -0.668825,1.564654 -1.374952,1.925418 -0.676589,0.345674 -0.875649,0.361016 -4.683906,0.361016 -2.334502,0 -3.977286,-0.0614 -3.977286,-0.148673 z m 12.43498,-0.09664 c -0.352994,-0.127173 -0.65681,-0.232307 -0.675152,-0.233636 -0.01833,-0.0012 -0.22226,-0.324765 -0.45315,-0.718748 -0.230886,-0.393983 -0.396387,-0.881354 -0.367777,-1.083048 0.05201,-0.366714 0.05201,-0.366714 4.583881,-0.366714 2.492519,0 4.532259,0.05741 4.532752,0.127585 4.53e-4,0.07017 -0.362329,0.665847 -0.806258,1.323723 l -0.807147,1.196141 -2.682672,-0.007 c -1.916582,-0.0051 -2.865947,-0.07311 -3.324477,-0.238303 z M 6.1742263,82.925535 c -0.5961675,-0.501644 -0.9692559,-1.173713 -0.9692559,-1.74599 0,-0.417204 0,-0.417204 3.8626294,-0.368986 l 3.8626282,0.04823 0.630012,0.675703 c 0.487059,0.522388 0.630011,0.80454 0.630011,1.243499 v 0.567794 h -3.7583 c -3.7582961,0 -3.7582961,0 -4.2577247,-0.420242 z m 10.4293427,0 c -0.596169,-0.501644 -0.969256,-1.173713 -0.969256,-1.74599 0,-0.417204 0,-0.417204 3.862629,-0.368986 l 3.862627,0.04823 0.630013,0.675703 c 0.48706,0.522388 0.630009,0.80454 0.630009,1.243499 v 0.567794 h -3.758298 c -3.758297,0 -3.758297,0 -4.257724,-0.420241 z m 8.885692,0.155096 c 0.05596,-0.145828 0.216869,-0.723454 0.357573,-1.283609 l 0.255833,-1.018469 h 1.363044 c 1.335511,0 1.361072,0.0072 1.265331,0.361016 -0.05374,0.198558 -0.184911,0.776184 -0.291492,1.28361 l -0.193781,0.922596 h -1.429126 c -1.263025,0 -1.417305,-0.03083 -1.327382,-0.265144 z M 5.7483462,78.813023 c 0.1282772,-0.654934 0.5377822,-1.220455 1.219958,-1.684741 0.5163103,-0.351397 0.6409475,-0.361014 4.6784508,-0.361014 2.281406,0 4.148009,0.02611 4.148009,0.058 0,0.03189 -0.363637,0.609524 -0.808079,1.283614 l -0.808079,1.225613 H 9.9124091 5.6462122 Z m 10.4288208,0.01342 c 0.05588,-0.279438 0.285254,-0.748834 0.509706,-1.043102 0.752844,-0.987033 0.908161,-1.016054 5.437753,-1.016054 2.254713,0 4.099477,0.04948 4.099477,0.109944 0,0.06047 -0.342963,0.637161 -0.76214,1.281539 l -0.762147,1.171595 -4.312131,0.0022 c -4.312131,0.0021 -4.312131,0.0021 -4.210518,-0.505996 z m 10.293466,0.147051 c 0.240028,-0.804596 0.887723,-1.693551 1.416876,-1.94465 0.463012,-0.219714 1.181649,-0.261557 4.492269,-0.261557 h 3.941075 l -0.829703,1.283614 -0.829705,1.283609 h -4.149257 c -4.149258,0 -4.149258,0 -4.041555,-0.361016 z"
       id="path3"
       sodipodi:nodetypes="sscssssssscsssssscssscscsssssscsscssssscsscsscccssscscssssscccscsssscscccsscccsc" /><path
       d="m 7.4434811,55.871359 c -0.329879,-0.192044 -0.5062663,-0.500487 -0.3919707,-0.685428 0.1287434,-0.208306 0.5101925,-0.138121 1.0025103,0.184461 0.7826654,0.512823 0.8400814,0.463087 3.7907433,-3.283535 2.541601,-3.227222 5.673692,-7.462304 10.327266,-13.964071 l 0.969574,-1.354643 -4.138325,-0.09558 c -3.682792,-0.08506 -4.19017,-0.169604 -4.609366,-0.768096 -0.469394,-0.670142 -0.474156,-0.670086 -1.345926,0.01565 -1.128229,0.887468 -1.382067,0.623243 -0.49034,-0.510406 0.38335,-0.487355 0.613017,-1.104971 0.510365,-1.372477 -0.112387,-0.292879 0.02074,-0.486377 0.334526,-0.486377 0.286641,0 0.846714,-0.457191 1.244607,-1.015981 0.787168,-1.105476 1.575832,-1.386256 1.189055,-0.423326 -0.130933,0.325962 -0.315939,0.783152 -0.411132,1.015982 -0.09601,0.234843 0.06921,0.423325 0.371157,0.423325 0.299324,0 0.544216,0.152397 0.544216,0.338661 0,0.186265 -0.263228,0.338661 -0.584956,0.338661 -0.477007,0 -0.420953,0.164004 0.303738,0.888694 0.888695,0.888694 0.888695,0.888694 4.013949,0.519167 1.718896,-0.203238 3.449083,-0.582207 3.844856,-0.842152 0.790911,-0.519462 3.456937,-5.042643 7.098787,-12.043793 1.982624,-3.811436 2.296567,-4.635964 1.966448,-5.164575 -0.316765,-0.50722 -0.295166,-0.629037 0.111565,-0.629037 0.734445,0 0.983943,1.461181 0.502915,2.945297 -0.686417,2.117791 -3.001329,7.110517 -5.114232,11.030163 -1.090791,2.023523 -1.983248,3.745378 -1.983248,3.826345 0,0.08096 0.375824,0.147213 0.835155,0.147213 0.93609,0 3.22877,0.997982 3.22877,1.405451 0,0.599051 -1.655156,1.084326 -3.641841,1.067746 -2.117876,-0.01768 -2.117876,-0.01768 -4.724901,3.580476 -6.062749,8.367635 -12.159581,15.290504 -13.4494349,15.27165 -0.387612,-0.0057 -0.9746511,-0.167433 -1.30453,-0.359476 z"
       style="fill:#000000;stroke-width:0.959989"
       id="path1-1" /><path
       style="fill:none;fill-opacity:1;fill-rule:evenodd;stroke:#000000;stroke-width:1;stroke-dasharray:none;stroke-opacity:1"
       id="rect3"
       width="35.8829"
       height="94.031601"
       x="2.2081783"
       y="2.7602229"
       inkscape:path-effect="#path-effect3"
       sodipodi:type="rect"
       d="M 3.7956783,2.7602229 H 36.503579 a 1.5875,1.5875 45 0 1 1.5875,1.5875 V 95.204324 a 1.5875,1.5875 135 0 1 -1.5875,1.5875 H 3.7956783 a 1.5875,1.5875 45 0 1 -1.5875,-1.5875 V 4.3477229 a 1.5875,1.5875 135 0 1 1.5875,-1.5875 z" /><path
       style="fill:none;stroke:#000000;stroke-width:1.11934;stroke-linecap:butt;stroke-linejoin:miter;stroke-dasharray:none;stroke-opacity:1"
       d="m 3.8275942,74.830548 10.8203168,-18.510413 7.557484,7.80774 8.936038,-14.588576 4.281151,5.101346"
       id="path2"
       sodipodi:nodetypes="ccccc" /><path
       style="fill:#000000;stroke-width:0.707967"
       d="m 8.6099348,25.336026 c -0.375643,-0.04302 -0.844519,-0.283638 -1.152481,-0.591437 -0.598674,-0.598356 -0.745518,-1.469641 -0.386369,-2.292474 l 0.06842,-0.156744 -0.210374,-0.15012 c -0.115706,-0.08257 -0.322263,-0.259537 -0.459015,-0.393269 -0.803063,-0.785325 -1.226919,-1.790584 -1.226919,-2.909877 0,-1.53517 0.810204,-2.87432 2.179807,-3.602908 l 0.289941,-0.15424 -0.02094,-0.13966 c -0.02839,-0.189326 0.04258,-1.001096 0.119772,-1.369979 0.180065,-0.860473 0.602466,-1.741693 1.158421,-2.416722 1.1001202,-1.3357398 2.7085082,-2.1000658 4.4191712,-2.1000408 0.913961,1.2e-5 1.744922,0.196471 2.565814,0.606617 l 0.328414,0.164086 0.204932,-0.196163 c 0.239862,-0.229599 0.435457,-0.350141 0.765621,-0.471841 l 0.239329,-0.08822 0.02001,-0.232249 c 0.07137,-0.828351 0.535265,-1.540436 1.263351,-1.939272 0.62395,-0.341793 1.374578,-0.385446 2.048057,-0.119104 0.340653,0.134719 0.556859,0.274314 0.818675,0.528585 0.180317,0.17512 0.185535,0.177541 0.316674,0.146913 0.07334,-0.01713 0.269264,-0.0315 0.435399,-0.03194 0.855515,-0.0023 1.672108,0.472898 2.105951,1.225388 0.07252,0.125779 0.141872,0.268622 0.154122,0.31743 0.01531,0.06102 0.05075,0.09498 0.113433,0.108717 0.717737,0.157262 1.255084,0.58729 1.538133,1.2309358 0.04028,0.09159 0.09601,0.3016 0.123836,0.466677 0.04505,0.267254 0.04514,0.334007 7.08e-4,0.609228 -0.145902,0.904462 -0.799686,1.548426 -1.721927,1.696068 -0.192298,0.03078 -0.353282,0.05838 -0.357744,0.06132 -0.0045,0.003 0.02927,0.08284 0.07496,0.177556 0.08975,0.186046 0.182294,0.448397 0.260806,0.739369 0.04341,0.160866 0.06474,0.299749 0.141149,0.918607 0.0156,0.126319 0.0293,0.141394 0.207288,0.228151 1.594178,0.777009 2.510082,2.620417 2.172112,4.371733 -0.168593,0.873628 -0.500155,1.491608 -1.144748,2.133627 -0.620184,0.617708 -1.275563,0.96483 -2.146869,1.137091 -0.258652,0.05114 -0.624059,0.05861 -3.386102,0.06924 l -3.096161,0.01192 0.02148,0.209689 c 0.02967,0.289613 -0.03245,0.691125 -0.151158,0.976921 -0.220602,0.531128 -0.644657,0.922308 -1.248187,1.151421 l -0.196661,0.07466 -3.566748,0.0038 c -1.961711,0.0021 -3.6192492,-0.0022 -3.6834182,-0.0095 z m 7.3596992,-0.886627 c 0.574895,-0.302901 0.838214,-0.916243 0.644912,-1.502179 -0.178692,-0.541649 -0.6465,-0.855041 -1.276342,-0.855041 h -0.294788 l -0.0012,-0.09167 c -0.0022,-0.171189 -0.0908,-0.467305 -0.20246,-0.676805 -0.413921,-0.776594 -1.40221,-1.084009 -2.194389,-0.682582 l -0.152746,0.0774 -0.09147,-0.18831 c -0.165192,-0.340068 -0.55138,-0.670987 -0.938045,-0.803798 -0.144819,-0.04974 -0.282285,-0.06762 -0.519793,-0.06762 -0.495804,0 -0.823417,0.132924 -1.1619322,0.471439 -0.338514,0.338515 -0.471439,0.666127 -0.471439,1.161931 0,0.302288 0.02795,0.440366 0.150147,0.741684 0.0217,0.05351 -0.0077,0.05837 -0.354918,0.0587 -0.561429,5.35e-4 -0.834414,0.100782 -1.117296,0.410301 -0.227722,0.249165 -0.311514,0.478674 -0.310571,0.850666 7.78e-4,0.317331 0.04722,0.458917 0.23712,0.723352 0.131652,0.183321 0.408717,0.377878 0.619609,0.435093 0.126446,0.03431 0.890125,0.04187 3.7093102,0.03674 l 3.550081,-0.0064 z m 7.778632,-2.375412 c 0.725049,-0.134052 1.278104,-0.422532 1.779945,-0.928437 0.451177,-0.454831 0.664125,-0.822621 0.870471,-1.503426 0.08934,-0.294755 0.08807,-1.270005 -0.0021,-1.600037 -0.258974,-0.948108 -0.853568,-1.68644 -1.712921,-2.127001 -0.159532,-0.08179 -0.37354,-0.172546 -0.475573,-0.201686 l -0.185516,-0.05298 0.01402,-0.375866 c 0.03173,-0.850423 -0.259015,-1.73529 -0.78889,-2.400955 -0.55492,-0.697128 -1.320701,-1.164645 -2.199247,-1.342661 -0.400553,-0.08116 -1.251484,-0.05619 -1.621635,0.04758 -0.562111,0.157596 -0.911363,0.33425 -1.381165,0.698603 -0.15781,0.122388 -0.286773,0.201137 -0.293981,0.179515 -0.03772,-0.113168 -0.408455,-0.656043 -0.610682,-0.894242 -0.700746,-0.825391 -1.553669,-1.337864 -2.697619,-1.6208458 -0.440241,-0.108903 -1.428775,-0.124326 -1.921887,-0.02998 -0.594502,0.1137408 -1.032393,0.2757198 -1.636243,0.6052578 -0.235839,0.128704 -0.693342,0.487789 -0.9669082,0.758908 -0.412744,0.409049 -0.717482,0.837919 -0.959009,1.349648 -0.363738,0.770661 -0.504995,1.46054 -0.468886,2.28997 0.01157,0.265839 0.02939,0.535912 0.03961,0.60016 l 0.01857,0.116816 -0.21103,0.06189 c -0.116066,0.03404 -0.316032,0.114132 -0.444368,0.177988 -0.905161,0.450375 -1.514268,1.193522 -1.770312,2.159886 -0.182712,0.689588 -0.09077,1.598999 0.225345,2.228899 0.24129,0.480802 0.711315,1.01522 1.147579,1.304795 0.153569,0.101934 0.200945,0.11911 0.24398,0.08846 0.118077,-0.0841 0.331451,-0.187201 0.53675,-0.259349 l 0.216672,-0.07614 0.02097,-0.243298 c 0.146789,-1.702959 1.9855192,-2.734736 3.5124432,-1.970956 0.266578,0.133345 0.395149,0.224674 0.639816,0.454485 l 0.173139,0.162625 0.293539,-0.03793 c 1.006675,-0.130054 2.012257,0.435573 2.467783,1.388095 0.09947,0.208006 0.12853,0.242341 0.220204,0.260219 0.384046,0.0749 0.841616,0.330486 1.088964,0.608275 l 0.150004,0.168463 3.204724,0.0034 c 2.758517,0.0029 3.243527,-0.0038 3.483413,-0.04813 z m 1.195376,-9.870163 c 0.791839,-0.37362 0.978701,-1.374599 0.369588,-1.97981 -0.282824,-0.2810118 -0.441265,-0.3446218 -0.8946,-0.3591598 l -0.375008,-0.01202 v -0.107751 c 0,-0.05926 -0.02373,-0.187667 -0.05274,-0.285343 -0.15263,-0.513962 -0.458068,-0.883551 -0.90229,-1.091798 -0.240264,-0.112634 -0.291152,-0.123795 -0.622187,-0.136467 -0.309011,-0.01183 -0.392358,-0.0031 -0.583346,0.06108 -0.122554,0.04119 -0.252414,0.09538 -0.288577,0.120431 -0.03616,0.02505 -0.07563,0.04554 -0.08769,0.04554 -0.01207,0 -0.06499,-0.08619 -0.117587,-0.191524 -0.251823,-0.504276 -0.860292,-0.873687 -1.440862,-0.874772 -0.719005,-0.0013 -1.359751,0.468541 -1.590394,1.166298 -0.09073,0.274483 -0.08437,0.72288 0.01417,1.000023 0.04237,0.119169 0.09261,0.235422 0.111625,0.258339 0.02738,0.03299 -0.06169,0.04167 -0.427846,0.04169 -0.439983,2.5e-5 -0.472244,0.0047 -0.664755,0.09575 -0.111281,0.05264 -0.257582,0.1442318 -0.325114,0.2035248 l -0.122784,0.107806 0.396024,0.388129 c 0.217813,0.213471 0.451111,0.458084 0.518439,0.543584 l 0.122415,0.155455 0.281788,-0.149902 c 0.594475,-0.316244 1.209685,-0.474373 1.948288,-0.500775 0.441163,-0.01577 0.57097,-0.0081 0.88814,0.05264 0.986681,0.188885 1.760412,0.594301 2.432329,1.274481 l 0.296281,0.299924 0.45001,-0.01158 c 0.420576,-0.01082 0.464182,-0.01826 0.666682,-0.113808 z"
       id="path4" /></g></svg>
